<svg xmlns="http://www.w3.org/2000/svg" viewBox="0 0 59 60">
  <path fill="#d90429" d="M36.313125,7.66347656 L36.2816016,7.66335938 C35.5988672,7.66335938 35.0485547,8.21648438 35.0478516,8.89910156 C35.0470313,9.58125 35.6017969,10.1350781 36.2837109,10.1375391 C36.2880469,10.1375391 36.2922656,10.1375391 36.2966016,10.1375391 C36.9718359,10.1375391 37.5239063,9.59472656 37.5331641,8.91738281 C37.5426563,8.23417969 36.9963281,7.67273438 36.313125,7.66347656 Z M40.8800391,9.01769531 C40.3048828,8.64890625 39.5397656,8.81613281 39.1708594,9.39128906 C38.8019531,9.96644531 38.9691797,10.7315625 39.5443359,11.1004687 C41.42625,12.3072656 42.5477344,14.4036328 42.5442188,16.7083594 C42.5432813,17.3915625 43.0961719,17.9463281 43.7794922,17.9473828 C43.7800781,17.9473828 43.7807813,17.9473828 43.7814844,17.9473828 C44.46375,17.9473828 45.0174609,17.3947266 45.0186328,16.7121094 C45.0234375,13.5589453 43.4763281,10.6825781 40.8800391,9.01769531 Z M48.8090625,14.4194531 C48.1730859,8.22140625 43.0883203,3.37652344 36.9295313,3.37652344 C34.0754297,3.37652344 31.303125,4.44996094 29.1494531,6.3571875 C26.9957813,4.44996094 24.2234766,3.37652344 21.369375,3.37652344 C15.2107031,3.37652344 10.1258203,8.22140625 9.48984375,14.4194531 C4.55859375,15.2914453 0.837773438,19.7499609 0.837773438,25.0304297 C0.837773438,29.0635547 3.63410156,33.7539844 9.1490625,38.9711719 C11.5466016,41.2394531 13.9205859,43.0932422 15.4714453,44.2372266 L13.7433984,47.3380078 C13.5303516,47.7202734 13.5351563,48.1865625 13.7560547,48.564375 C13.9768359,48.9421875 14.3807813,49.1752734 14.8183594,49.1773828 L16.6841016,49.1861719 L16.6841016,58.7628516 C16.6841016,59.4461719 17.2379297,60 17.92125,60 C18.6045703,60 19.1583984,59.4461719 19.1583984,58.7628516 L19.1583984,49.1976563 L20.9867578,49.2063281 C20.98875,49.2063281 20.990625,49.2063281 20.9926172,49.2063281 C21.3195703,49.2063281 21.6333984,49.0764844 21.8653125,48.8457422 C22.0986328,48.6134766 22.2297656,48.2975391 22.2297656,47.9684766 C22.2297656,47.7616406 22.1779688,47.5580859 22.0788281,47.3764453 L20.3701172,44.2413281 C21.6316406,43.3112109 23.4382031,41.9108203 25.3585547,40.1998828 L24.256875,42.1767188 C23.9630859,42.7040625 24.0926953,43.3666406 24.5637891,43.7442188 C25.5333984,44.5214063 26.8192969,44.6724609 27.9125391,44.195625 L27.9125391,58.7628516 C27.9125391,59.4461719 28.4663672,60 29.1496875,60 C29.8328906,60 30.3868359,59.4461719 30.3868359,58.7628516 L30.3868359,44.2209375 C30.8000391,44.4001172 31.2405469,44.4910547 31.6815234,44.4910547 C32.3944922,44.4910547 33.1075781,44.2566797 33.7046484,43.7873438 C33.97875,43.5718359 34.149375,43.2498047 34.1742188,42.9019922 C34.1910938,42.6658594 34.1397656,42.4298438 34.0265625,42.2218359 L32.9090625,40.1715234 C34.82625,41.881875 36.6324609,43.2840234 37.8994922,44.2191797 L36.1616016,47.3376563 C35.9485547,47.7198047 35.9533594,48.1862109 36.1742578,48.5640234 C36.3950391,48.9418359 36.7989844,49.1749219 37.2365625,49.1770313 L39.13875,49.1859375 L39.13875,58.7628516 C39.13875,59.4461719 39.6925781,60 40.3758984,60 C41.0592188,60 41.6130469,59.4461719 41.6130469,58.7628516 L41.6130469,49.1977734 L43.4048438,49.2062109 C43.4068359,49.2062109 43.4087109,49.2062109 43.4107031,49.2062109 C43.7376563,49.2062109 44.0514844,49.0763672 44.2833984,48.845625 C44.5167188,48.6133594 44.6478516,48.2974219 44.6478516,47.9683594 C44.6478516,47.7615234 44.5960547,47.5579688 44.4969141,47.3763281 L42.7979297,44.2591406 C44.3482031,43.1171484 46.7371875,41.2542188 49.1504297,38.9710547 C54.6653906,33.75375 57.4617188,29.0635547 57.4617188,25.0303125 C57.4611328,19.7498438 53.7403125,15.2914453 48.8090625,14.4194531 Z M16.9241016,46.7129297 L17.5277344,45.6297656 C17.6561719,45.6732422 17.7894141,45.6971484 17.9232422,45.6971484 C18.0541406,45.6971484 18.1845703,45.6744141 18.3103125,45.6329297 L18.9039844,46.7221875 L16.9241016,46.7129297 Z M17.923125,42.9546094 C16.6318359,42.0399609 13.7102344,39.8839453 10.8246094,37.1505469 C5.90976563,32.4950391 3.31183594,28.3040625 3.31183594,25.0304297 C3.31183594,21.1115625 5.94398438,17.7823828 9.49792969,16.9433203 C10.4237109,24.7626562 19.9485938,33.0464062 25.1472656,37.0300781 C22.2174609,39.8219531 19.2322266,42.0270703 17.923125,42.9546094 Z M29.1314062,41.1124219 C28.5338672,41.1124219 27.9360937,41.2771875 27.4067578,41.6067188 L28.5823828,39.4969922 C28.7602734,39.5889844 28.9543359,39.6375 29.1493359,39.6375 C29.3463281,39.6375 29.5421484,39.5879297 29.7215625,39.4939453 L30.8819531,41.6230078 C30.3466406,41.2826953 29.7391406,41.1124219 29.1314062,41.1124219 Z M29.1495703,36.8967188 C27.7047656,35.8787109 24.1959375,33.3086719 20.7301172,30.0263672 C14.9511328,24.5534766 11.8966406,19.6108594 11.8966406,15.7326562 C11.8965234,10.2836719 16.1459766,5.85070312 21.3692578,5.85070312 C23.9895703,5.85070312 26.4278906,6.94253906 28.2351563,8.92535156 C28.4695313,9.18257812 28.8015234,9.32917969 29.1494531,9.32917969 C29.4973828,9.32917969 29.829375,9.18257812 30.06375,8.92535156 C31.8707813,6.94265625 34.3091016,5.85070312 36.9296484,5.85070312 C42.1530469,5.85070312 46.4025,10.2836719 46.4025,15.7326562 C46.4025,19.6108594 43.3478906,24.5534766 37.5690234,30.0263672 C34.1030859,33.3086719 30.594375,35.8785938 29.1495703,36.8967188 Z M39.3420703,46.7129297 L39.9516797,45.6189844 C40.0886719,45.6691406 40.2315234,45.6971484 40.3754297,45.6971484 C40.4963672,45.6971484 40.6173047,45.6791016 40.7341406,45.6437109 L41.3219531,46.7221875 L39.3420703,46.7129297 Z M47.4741797,37.1505469 C44.5884375,39.8839453 41.6667188,42.0401953 40.3755469,42.9547266 C39.0672656,42.0283594 36.0849609,39.8259375 33.1515234,37.0300781 C38.3501953,33.0465234 47.8753125,24.7626562 48.8009766,16.9433203 C52.3548047,17.7826172 54.9870703,21.1115625 54.9870703,25.0304297 C54.9869531,28.3040625 52.3891406,32.4950391 47.4741797,37.1505469 Z M51.3821484,27.5704687 C51.9616406,27.9326953 52.1377734,28.6958203 51.7754297,29.2750781 C51.7607812,29.2986328 51.744375,29.3227734 51.7282031,29.3452734 C51.4863281,29.6799609 51.1081641,29.8578516 50.724375,29.8578516 C50.4744141,29.8578516 50.2221094,29.7823828 50.0036719,29.6253516 C49.4564062,29.2321875 49.3253906,28.4746875 49.7050781,27.9213281 C50.0773828,27.3761719 50.8174219,27.2173828 51.3821484,27.5704687 Z M49.0161328,30.9692578 C49.5296484,31.4199609 49.5807422,32.2016016 49.1301563,32.7152344 C47.4042188,34.6823438 45.2799609,36.7108594 42.8162109,38.7444141 C42.5857031,38.9346094 42.3067969,39.0274219 42.0294141,39.0274219 C41.6728125,39.0274219 41.3192578,38.8741406 41.0745703,38.5777734 C40.6396875,38.0508984 40.7143359,37.2711328 41.2412109,36.8361328 C43.6030078,34.8867188 45.6315234,32.95125 47.2702734,31.0832813 C47.7209766,30.5697656 48.5026172,30.5186719 49.0161328,30.9692578 Z M17.0574609,36.8361328 C17.5844531,37.2711328 17.6591016,38.0508984 17.2241016,38.5777734 C16.9794141,38.8741406 16.625625,39.0274219 16.2692578,39.0274219 C15.9919922,39.0274219 15.7130859,38.9347266 15.4824609,38.7442969 C13.0188281,36.7107422 10.8944531,34.6821094 9.16851562,32.7151172 C8.71792969,32.2016016 8.76902344,31.4199609 9.28253906,30.9692578 C9.79640625,30.5187891 10.5776953,30.5697656 11.0283984,31.0832813 C12.6670312,32.9511328 14.6955469,34.8867188 17.0574609,36.8361328 Z M56.6749219,0.804257812 C57.1580859,1.28742187 57.1580859,2.07082031 56.6750391,2.55386719 L53.776875,5.45203125 C53.5353516,5.69367187 53.2185938,5.814375 52.9020703,5.814375 C52.5854297,5.814375 52.2687891,5.69367187 52.0271484,5.45203125 C51.5441016,4.96886719 51.5441016,4.18546875 52.0271484,3.70242187 L54.9253125,0.804257812 C55.4084766,0.321210937 56.191875,0.321210937 56.6749219,0.804257812 Z M6.27164063,3.70242187 C6.7546875,4.18570312 6.7546875,4.96898437 6.27164063,5.45203125 C6.03011719,5.69367187 5.71347656,5.814375 5.39683594,5.814375 C5.08019531,5.814375 4.76355469,5.69367187 4.52191406,5.45203125 L1.62375,2.55398437 C1.14070313,2.07082031 1.14070313,1.28742187 1.62375,0.804375 C2.10691406,0.321328125 2.8903125,0.321328125 3.37335938,0.804375 L6.27164063,3.70242187 Z M5.39683594,50.8453125 C6.08003906,50.8453125 6.63398438,51.3992578 6.63398438,52.0824609 C6.63398438,52.7657813 6.08003906,53.3196094 5.39683594,53.3196094 L5.38148438,53.3196094 C4.69816406,53.3196094 4.14433594,52.7656641 4.14433594,52.0824609 C4.14433594,51.3991406 4.69828125,50.8453125 5.38148438,50.8453125 L5.39683594,50.8453125 Z M52.9019531,10.0174219 C53.5852734,10.0174219 54.1391016,10.57125 54.1391016,11.2545703 C54.1391016,11.9378906 53.5852734,12.4917187 52.9019531,12.4917187 L52.8866016,12.4917187 C52.2032812,12.4917187 51.6494531,11.9378906 51.6494531,11.2545703 C51.6494531,10.57125 52.2032812,10.0174219 52.8866016,10.0174219 L52.9019531,10.0174219 Z M52.9019531,51.2164453 C53.5852734,51.2164453 54.1391016,51.7703906 54.1391016,52.4535937 C54.1391016,53.1369141 53.5852734,53.6907422 52.9019531,53.6907422 L52.8866016,53.6907422 C52.2032812,53.6907422 51.6494531,53.1369141 51.6494531,52.4535937 C51.6494531,51.7702734 52.2032812,51.2164453 52.8866016,51.2164453 L52.9019531,51.2164453 Z M46.0964063,0 C46.7796094,0 47.3335547,0.553828125 47.3335547,1.23714844 C47.3335547,1.92046875 46.7797266,2.47429687 46.0964063,2.47429687 L46.0810547,2.47429687 C45.3977344,2.47429687 44.8439063,1.92046875 44.8439063,1.23714844 C44.8439063,0.553828125 45.3977344,0 46.0810547,0 L46.0964063,0 Z M5.4121875,10.0174219 C6.09539062,10.0174219 6.64933594,10.57125 6.64933594,11.2545703 C6.64933594,11.9378906 6.09539062,12.4917187 5.4121875,12.4917187 L5.39683594,12.4917187 C4.71351562,12.4917187 4.1596875,11.9378906 4.1596875,11.2545703 C4.1596875,10.57125 4.71363281,10.0174219 5.39683594,10.0174219 L5.4121875,10.0174219 Z M12.2176172,0 L12.2022656,0 C11.5190625,0 10.9652344,0.553828125 10.9652344,1.23714844 C10.9652344,1.92046875 11.5190625,2.47429687 12.2023828,2.47429687 L12.2177344,2.47429687 C12.9010547,2.47429687 13.4548828,1.92046875 13.4548828,1.23714844 C13.4548828,0.553828125 12.9009375,0 12.2176172,0 Z M57.8627344,42.96375 C57.328125,43.4982422 57.328125,44.368125 57.8627344,44.9027344 C58.3457813,45.3858984 58.3457813,46.1692969 57.8627344,46.6523438 C57.6212109,46.8939844 57.3044531,47.0146875 56.9879297,47.0146875 C56.6712891,47.0146875 56.3547656,46.8939844 56.113125,46.6523438 C54.6138281,45.1530469 54.6138281,42.7135547 56.113125,41.2142578 C56.6477344,40.6796484 56.6477344,39.8098828 56.113125,39.2752734 C55.6300781,38.7921094 55.6300781,38.0087109 56.113125,37.5256641 C56.5962891,37.0426172 57.3796875,37.0426172 57.8627344,37.5256641 C59.3620313,39.0248438 59.3620313,41.4644531 57.8627344,42.96375 Z M2.949375,42.96375 C2.41476563,43.4982422 2.41476563,44.368125 2.94949219,44.9027344 C3.43253906,45.3858984 3.43253906,46.1692969 2.94949219,46.6523438 C2.70796875,46.8939844 2.39121094,47.0146875 2.0746875,47.0146875 C1.75804688,47.0146875 1.44152344,46.8939844 1.19988281,46.6523438 C-0.299414062,45.1530469 -0.299414062,42.7135547 1.19988281,41.2142578 C1.73449219,40.6796484 1.73449219,39.8098828 1.19988281,39.2752734 C0.716835938,38.7921094 0.716835938,38.0087109 1.19988281,37.5256641 C1.68304688,37.0426172 2.46644531,37.0426172 2.94949219,37.5256641 C4.44890625,39.0248438 4.44890625,41.4644531 2.949375,42.96375 Z"/>
</svg>
