<?xml version="1.0" encoding="UTF-8"?>
<svg width="30px" height="30px" viewBox="0 0 30 30" version="1.1" xmlns="http://www.w3.org/2000/svg" xmlns:xlink="http://www.w3.org/1999/xlink">
    <!-- Generator: sketchtool 49.3 (51167) - http://www.bohemiancoding.com/sketch -->
    <title>D372ED8B-CBCE-4861-9996-AD0F6E773CC1</title>
    <desc>Created with sketchtool.</desc>
    <defs></defs>
    <g id="Symbols" stroke="none" stroke-width="1" fill="none" fill-rule="evenodd">
        <g id="icons/cart" fill="#383A47" fill-rule="nonzero">
            <path d="M27.3086373,28.9335105 L25.8206555,6.2443896 C25.7879234,5.74528194 25.3735699,5.35720524 24.873399,5.35720524 L20.719991,5.35720524 L20.719991,4.74653503 C20.719991,2.12933359 18.5906574,0 15.973456,0 L14.3410276,0 C11.7238262,0 9.59449259,2.12933359 9.59449259,4.74653503 L9.59449259,5.35720524 L5.44108458,5.35720524 C4.94091371,5.35720524 4.52656019,5.74528194 4.49382808,6.2443896 L3.00204908,28.9887222 C2.98480966,29.250655 3.07693042,29.5080311 3.25646336,29.6996393 C3.4359963,29.8913993 3.68676524,30 3.94938153,30 L26.365102,30 C26.3656337,30 26.3660893,30 26.3666209,30 C26.8908662,30 27.3159279,29.5750142 27.3159279,29.050693 C27.3157761,29.0111259 27.3134218,28.9719385 27.3086373,28.9335105 Z M11.4930307,4.74653503 C11.4930307,3.17615341 12.7705701,1.89861401 14.3409517,1.89861401 L15.97338,1.89861401 C17.5437616,1.89861401 18.821301,3.17615341 18.821301,4.74653503 L18.821301,5.35720524 L11.4930307,5.35720524 L11.4930307,4.74653503 Z M4.96293763,28.101386 L6.33009161,7.2558952 L9.59441665,7.2558952 L9.59441665,8.10298082 C8.91888978,8.44928802 8.45524824,9.15238276 8.45524824,9.96225555 C8.45524824,11.1138789 9.39210034,12.050731 10.5437237,12.050731 C11.695347,12.050731 12.6321991,11.1138789 12.6321991,9.96225555 C12.6321991,9.15238276 12.1685575,8.44928802 11.4930307,8.10298082 L11.4930307,7.2558952 L18.821301,7.2558952 L18.821301,8.10298082 C18.1456982,8.44928802 17.6821326,9.15238276 17.6821326,9.96225555 C17.6821326,11.1138789 18.6189847,12.050731 19.770608,12.050731 C20.9222313,12.050731 21.8590834,11.1138789 21.8590834,9.96225555 C21.8590834,9.15238276 21.3954419,8.44928802 20.719915,8.10298082 L20.719915,7.2558952 L23.9842401,7.2558952 L25.3513941,28.101386 L4.96293763,28.101386 Z" id="Shape"></path>
        </g>
    </g>
</svg>