<?xml version="1.0" encoding="UTF-8"?>
<svg width="24px" height="24px" viewBox="0 0 24 24" version="1.1" xmlns="http://www.w3.org/2000/svg" xmlns:xlink="http://www.w3.org/1999/xlink">
    <!-- Generator: sketchtool 49.3 (51167) - http://www.bohemiancoding.com/sketch -->
    <title>112823E7-3A36-455D-BDE7-D1B2F5593CD4</title>
    <desc>Created with sketchtool.</desc>
    <defs>
        <path d="M11.9609412,7.84313725e-05 C5.36564706,7.84313725e-05 0,5.36564706 0,11.9608627 C0,18.5560784 5.36564706,23.9216471 11.9609412,23.9216471 C18.5561569,23.9216471 23.9217255,18.5560784 23.9217255,11.9608627 C23.9217255,5.36564706 18.5561569,7.84313725e-05 11.9609412,7.84313725e-05 Z M11.9609412,21.9608627 C6.44682353,21.9608627 1.96078431,17.4749804 1.96078431,11.9608627 C1.96078431,6.44682353 6.44682353,1.96086275 11.9609412,1.96086275 C17.4749804,1.96086275 21.9609412,6.44682353 21.9609412,11.9608627 C21.9609412,17.4749804 17.4749804,21.9608627 11.9609412,21.9608627 Z M13.347451,11.9607843 L16.7301961,8.57811765 C17.113098,8.19521569 17.113098,7.5745098 16.7301961,7.19160784 C16.3473725,6.80870588 15.7265882,6.80878431 15.3436863,7.19160784 L11.9609412,10.5743529 L8.57811765,7.19152941 C8.19521569,6.80870588 7.5745098,6.80870588 7.19160784,7.19152941 C6.80878431,7.57443137 6.80878431,8.19513725 7.19160784,8.57803922 L10.5743529,11.9607843 L7.19152941,15.3436078 C6.80870588,15.7265098 6.80870588,16.3472157 7.19152941,16.7301961 C7.38298039,16.9215686 7.63388235,17.0172549 7.88478431,17.0172549 C8.13568627,17.0172549 8.38658824,16.9214902 8.57803922,16.7301961 L11.9608627,13.3472941 L15.3436863,16.7301961 C15.5351373,16.9214902 15.7860392,17.0172549 16.0369412,17.0172549 C16.2878431,17.0172549 16.5387451,16.9214902 16.7301961,16.7301961 C17.113098,16.3472157 17.113098,15.7265098 16.7301961,15.3436078 L13.347451,11.9607843 Z" id="path-1"></path>
    </defs>
    <g id="Page-1" stroke="none" stroke-width="1" fill="none" fill-rule="evenodd">
        <g id="320-menu-open" transform="translate(-290.000000, -12.000000)">
            <g id="icons/close" transform="translate(290.000000, 12.000000)">
                <mask id="mask-2" fill="white">
                    <use xlink:href="#path-1"></use>
                </mask>
                <use id="Shape" fill="#383A47" fill-rule="nonzero" xlink:href="#path-1"></use>
                <g id="color/white" mask="url(#mask-2)" fill="#FFFFFF" fill-rule="evenodd">
                    <rect id="Rectangle" x="0" y="0" width="24" height="24"></rect>
                </g>
            </g>
        </g>
    </g>
</svg>