<?xml version="1.0" encoding="UTF-8"?>
<svg width="16px" height="16px" viewBox="0 0 16 16" version="1.1" xmlns="http://www.w3.org/2000/svg" xmlns:xlink="http://www.w3.org/1999/xlink">
    <!-- Generator: sketchtool 49.3 (51167) - http://www.bohemiancoding.com/sketch -->
    <title>336E07F8-BE7A-4A5C-AFE6-D4E0D2ED0FF1</title>
    <desc>Created with sketchtool.</desc>
    <defs></defs>
    <g id="Page-1" stroke="none" stroke-width="1" fill="none" fill-rule="evenodd">
        <g id="catalog-768" transform="translate(-344.000000, -360.000000)" fill="#383A47" fill-rule="nonzero">
            <g id="btn/dark-icon-full" transform="translate(16.000000, 348.000000)">
                <g id="text+icon" transform="translate(328.000000, 0.000000)">
                    <g id="icons/filter" transform="translate(0.000000, 12.000000)">
                        <path d="M15.3064718,0 L0.582219269,0 C0.28869103,0 0.0506578073,0.238028211 0.0506578073,0.53155027 L0.0506578073,3.16437191 C0.0506578073,3.45789397 0.28869103,3.69592218 0.582219269,3.69592218 L1.23986711,3.69592218 L6.09716944,9.40461261 L6.09716944,15.4631163 C6.09716944,15.659152 6.20507641,15.8392412 6.37788704,15.931731 C6.45650498,15.9738298 6.54272425,15.9946665 6.62867774,15.9946665 C6.73180066,15.9946665 6.83465781,15.9646871 6.92358804,15.9053661 L9.55481728,14.1512502 C9.70269767,14.0527008 9.79152159,13.8866976 9.79152159,13.7090004 L9.79152159,9.40461261 L14.6488239,3.69592218 L15.3064718,3.69592218 C15.6,3.69592218 15.8380332,3.45789397 15.8380332,3.16437191 L15.8380332,0.53155027 C15.8380332,0.238028211 15.6000532,0 15.3064718,0 Z M8.85512292,8.86466385 C8.77331561,8.96082129 8.72839867,9.08286523 8.72839867,9.20910842 L8.72839867,13.4245678 L7.16029236,14.4699146 L7.16029236,9.20910842 C7.16029236,9.08286523 7.11537542,8.96076814 7.03356811,8.86466385 L2.63574751,3.69592218 L13.2529435,3.69592218 L8.85512292,8.86466385 Z M14.7749103,2.63282164 L1.11378073,2.63282164 L1.11378073,1.06310054 L14.7749103,1.06310054 L14.7749103,2.63282164 Z" id="Shape"></path>
                    </g>
                </g>
            </g>
        </g>
    </g>
</svg>