<?xml version="1.0" encoding="UTF-8"?>
<svg width="30px" height="30px" viewBox="0 0 30 30" version="1.1" xmlns="http://www.w3.org/2000/svg" xmlns:xlink="http://www.w3.org/1999/xlink">
    <!-- Generator: sketchtool 49.3 (51167) - http://www.bohemiancoding.com/sketch -->
    <title>D8C2261A-15C5-4887-8E98-EAB0E4894486</title>
    <desc>Created with sketchtool.</desc>
    <defs>
        <path d="M25.169533,4.83086451 C24.6156877,4.27687123 23.9519764,4 23.1787501,4 L6.82175156,4 C6.04827448,4 5.38476378,4.27697156 4.83076797,4.83086451 C4.27687249,5.38460696 4,6.04821497 4,6.82153803 L4,23.1783115 C4,23.9515342 4.27682232,24.6152927 4.83076797,25.1690853 C5.38476378,25.7229281 6.04842498,26 6.82175156,26 L23.1785494,26 C23.9516252,26 24.6155372,25.7229281 25.1693825,25.1690853 C25.7233783,24.6152927 26,23.9515342 26,23.1783115 L26,6.82153803 C25.9999498,6.04806447 25.7233783,5.38480763 25.169533,4.83086451 Z M11.8993693,11.9276274 C12.7634482,11.0922478 13.8019082,10.6743574 15.0145986,10.6743574 C16.2366704,10.6743574 17.2797959,11.0922478 18.1440755,11.9276274 C19.0083551,12.7631574 19.4402441,13.7730175 19.4402441,14.957007 C19.4402441,16.1408459 19.0083551,17.1507562 18.1440755,17.9860354 C17.2797959,18.8217661 16.2370215,19.2396063 15.0145986,19.2396063 C13.8019583,19.2396063 12.7635987,18.8214149 11.8993693,17.9860354 C11.0350896,17.1506558 10.603,16.1408459 10.603,14.957007 C10.603,13.7730175 11.0350896,12.7632076 11.8993693,11.9276274 Z M23.5081978,22.5913084 C23.5081978,22.8393838 23.4220106,23.0469745 23.2502885,23.2141808 C23.0780646,23.3812367 22.8730817,23.4648147 22.6341356,23.4648147 L7.32312204,23.4648147 C7.07489499,23.4648147 6.8670525,23.3812367 6.70009623,23.2141808 C6.53288913,23.0473256 6.44936082,22.8393838 6.44936082,22.5913084 L6.44936082,13.309726 L8.46883936,13.309726 C8.27795336,13.9113779 8.18248528,14.5369092 8.18248528,15.1860691 C8.18248528,17.0198205 8.85081202,18.583122 10.187616,19.8772279 C11.5245705,21.170832 13.1334811,21.8179351 15.0145485,21.8179351 C16.2558844,21.8179351 17.4016519,21.5217998 18.4523526,20.9298302 C19.5027022,20.3375093 20.3329183,19.5332333 20.9444558,18.5161994 C21.5556422,17.4992156 21.8612103,16.389122 21.8612103,15.1861193 C21.8612103,14.5369593 21.7653911,13.9115785 21.5745051,13.3097762 L23.5082981,13.309726 L23.5082981,22.5913585 L23.5081978,22.5913585 L23.5081978,22.5913084 Z M23.5081978,9.80060018 C23.5081978,10.0775216 23.4127297,10.3115001 23.2214424,10.5024354 C23.0305564,10.6935212 22.7967273,10.7889387 22.5196541,10.7889387 L20.0275509,10.7889387 C19.7507787,10.7889387 19.5165985,10.693471 19.3257125,10.5024354 C19.1347763,10.3115001 19.0393584,10.0775216 19.0393584,9.80060018 L19.0393584,7.43753763 C19.0393584,7.17014795 19.1347763,6.93862762 19.3257125,6.74282613 C19.5166487,6.54712498 19.7508289,6.44914899 20.0275509,6.44914899 L22.5196541,6.44914899 C22.7967273,6.44914899 23.0306065,6.54707481 23.2214424,6.74282613 C23.4126795,6.93862762 23.5081978,7.17014795 23.5081978,7.43753763 L23.5081978,9.80060018 Z" id="path-1"></path>
    </defs>
    <g id="Symbols" stroke="none" stroke-width="1" fill="none" fill-rule="evenodd">
        <g id="icons/soc/instagram">
            <mask id="mask-2" fill="white">
                <use xlink:href="#path-1"></use>
            </mask>
            <use id="Shape" fill="#FFFFFF" fill-rule="nonzero" xlink:href="#path-1"></use>
            <g id="color/white" mask="url(#mask-2)" fill="#FFFFFF">
                <rect id="Rectangle" x="0" y="0" width="30" height="30"></rect>
            </g>
        </g>
    </g>
</svg>