<?xml version="1.0" encoding="UTF-8"?>
<svg width="20px" height="20px" viewBox="0 0 20 20" version="1.1" xmlns="http://www.w3.org/2000/svg" xmlns:xlink="http://www.w3.org/1999/xlink">
    <!-- Generator: sketchtool 49.3 (51167) - http://www.bohemiancoding.com/sketch -->
    <title>2897DAA3-E705-4164-88E4-80C97059271D</title>
    <desc>Created with sketchtool.</desc>
    <defs>
        <path d="M19.9609357,0.583157895 C19.959922,0.260896686 19.6973879,0 19.3759454,0 L16.0675244,0 C15.9123977,0 15.7636647,0.0616374269 15.6539571,0.171345029 L8.41091618,7.41434698 C6.12015595,6.67274854 3.59461988,7.2677193 1.88136452,8.98101365 C-0.627134503,11.4895127 -0.627134503,15.5711501 1.88136452,18.0796491 C4.38982456,20.5881092 8.471423,20.5882261 10.98,18.0796491 C12.6932943,16.3663548 13.2882261,13.8408577 12.5466667,11.5500975 L13.0472515,11.0495127 L14.9414815,10.6706823 C15.1730214,10.6243665 15.3539961,10.4433918 15.4003119,10.2118519 L15.7374269,8.52631579 L17.422963,8.18920078 C17.6546979,8.14288499 17.8357895,7.96159844 17.8819103,7.72982456 L18.2017934,6.12179337 L19.3761404,6.12179337 C19.6991423,6.12179337 19.9610136,5.85992203 19.9610136,5.53692008 L19.9610136,0.584873294 C19.9610136,0.584288499 19.9609357,0.58374269 19.9609357,0.583157895 Z M18.7912281,4.9520078 L17.7217934,4.9520078 C17.442768,4.9520078 17.2026121,5.14912281 17.1481481,5.42276803 L16.8107602,7.11871345 L15.125653,7.45575049 C14.8941131,7.50206628 14.7131384,7.68304094 14.6668226,7.9145809 L14.3297076,9.60011696 L12.6442105,9.93723197 C12.5309942,9.95988304 12.4269786,10.0155166 12.3453411,10.097193 L11.4580117,10.9845224 C11.2937232,11.1488109 11.2422222,11.3947758 11.3268616,11.6111501 C12.0899025,13.5619493 11.6290448,15.7762963 10.1528265,17.2525926 C8.10070175,19.3046784 4.76120858,19.3053021 2.70846004,17.2525926 C0.656062378,15.2001559 0.656062378,11.8606238 2.70846004,9.80822612 C4.18709552,8.32962963 6.40206628,7.87231969 8.34990253,8.63419103 C8.56635478,8.71883041 8.81224172,8.66736842 8.97653021,8.50304094 L16.3097856,1.16978558 L17.9640936,1.16978558 L10.6910331,8.44280702 C10.4626121,8.67122807 10.4626121,9.04152047 10.6910331,9.26994152 C10.8052242,9.38413255 10.9549318,9.44128655 11.1046004,9.44128655 C11.254269,9.44128655 11.4039766,9.38421053 11.5181676,9.26994152 L18.7912281,1.99692008 L18.7912281,4.9520078 Z M6.01711501,13.9438986 C5.33298246,13.2597661 4.21980507,13.2597271 3.53567251,13.9438986 C2.85153996,14.6280312 2.85153996,15.7412086 3.53567251,16.4253411 C4.21976608,17.1094737 5.33298246,17.1095127 6.01711501,16.4253411 C6.70124756,15.7412086 6.70124756,14.6279922 6.01711501,13.9438986 Z M5.18998051,15.5981676 C4.96132554,15.8267836 4.59146199,15.8267836 4.362846,15.5981676 C4.13423002,15.3695127 4.13426901,14.9996491 4.362846,14.7710331 C4.59095517,14.542963 4.96194932,14.5430019 5.18998051,14.7710331 C5.4180117,14.9990643 5.4180117,15.3701365 5.18998051,15.5981676 Z" id="path-1"></path>
    </defs>
    <g id="Symbols" stroke="none" stroke-width="1" fill="none" fill-rule="evenodd">
        <g id="account/sign-up" transform="translate(0.000000, -2.000000)">
            <g id="войти-[8h]">
                <g id="icons/login" transform="translate(0.000000, 2.000000)">
                    <mask id="mask-2" fill="white">
                        <use xlink:href="#path-1"></use>
                    </mask>
                    <use id="Shape" fill="#000000" fill-rule="nonzero" xlink:href="#path-1"></use>
                    <g id="color/main" mask="url(#mask-2)" fill="#383A47" fill-rule="evenodd">
                        <rect id="Rectangle" x="0" y="0" width="20" height="20"></rect>
                    </g>
                </g>
            </g>
        </g>
    </g>
</svg>