<svg viewBox="0 0 229 46" version="1.1" xmlns="http://www.w3.org/2000/svg" xmlns:xlink="http://www.w3.org/1999/xlink">
<path d="M98.92,36 L98.884,20.88 L91.468,33.336 L88.84,33.336 L81.46,21.204 L81.46,36 L75.988,36 L75.988,10.8 L80.812,10.8 L90.244,26.46 L99.532,10.8 L104.32,10.8 L104.392,36 L98.92,36 Z M111.368,10.8 L117.2,10.8 L117.2,36 L111.368,36 L111.368,10.8 Z M124.176,10.8 L130.008,10.8 L130.008,31.248 L142.644,31.248 L142.644,36 L124.176,36 L124.176,10.8 Z M158.692,36.432 C156.075987,36.432 153.718011,35.8680056 151.618,34.74 C149.51799,33.6119944 147.874006,32.0580099 146.686,30.078 C145.497994,28.0979901 144.904,25.8720124 144.904,23.4 C144.904,20.9279876 145.497994,18.7020099 146.686,16.722 C147.874006,14.7419901 149.51799,13.1880056 151.618,12.06 C153.718011,10.9319944 156.075987,10.368 158.692,10.368 C161.308013,10.368 163.65999,10.9319944 165.748,12.06 C167.83601,13.1880056 169.479994,14.7419901 170.68,16.722 C171.880006,18.7020099 172.48,20.9279876 172.48,23.4 C172.48,25.8720124 171.880006,28.0979901 170.68,30.078 C169.479994,32.0580099 167.83601,33.6119944 165.748,34.74 C163.65999,35.8680056 161.308013,36.432 158.692,36.432 Z M158.692,31.464 C160.180007,31.464 161.523994,31.1220034 162.724,30.438 C163.924006,29.7539966 164.865997,28.8000061 165.55,27.576 C166.234003,26.3519939 166.576,24.9600078 166.576,23.4 C166.576,21.8399922 166.234003,20.4480061 165.55,19.224 C164.865997,17.9999939 163.924006,17.0460034 162.724,16.362 C161.523994,15.6779966 160.180007,15.336 158.692,15.336 C157.203993,15.336 155.860006,15.6779966 154.66,16.362 C153.459994,17.0460034 152.518003,17.9999939 151.834,19.224 C151.149997,20.4480061 150.808,21.8399922 150.808,23.4 C150.808,24.9600078 151.149997,26.3519939 151.834,27.576 C152.518003,28.8000061 153.459994,29.7539966 154.66,30.438 C155.860006,31.1220034 157.203993,31.464 158.692,31.464 Z M188.888,27.072 L188.888,36 L183.056,36 L183.056,27 L173.3,10.8 L179.492,10.8 L186.224,21.996 L192.956,10.8 L198.68,10.8 L188.888,27.072 Z M202.128,10.8 L213.576,10.8 C216.312014,10.8 218.729989,11.3219948 220.83,12.366 C222.930011,13.4100052 224.561994,14.8799905 225.726,16.776 C226.890006,18.6720095 227.472,20.8799874 227.472,23.4 C227.472,25.9200126 226.890006,28.1279905 225.726,30.024 C224.561994,31.9200095 222.930011,33.3899948 220.83,34.434 C218.729989,35.4780052 216.312014,36 213.576,36 L202.128,36 L202.128,10.8 Z M213.288,31.212 C215.808013,31.212 217.817993,30.510007 219.318,29.106 C220.818008,27.701993 221.568,25.800012 221.568,23.4 C221.568,20.999988 220.818008,19.098007 219.318,17.694 C217.817993,16.289993 215.808013,15.588 213.288,15.588 L207.96,15.588 L207.96,31.212 L213.288,31.212 Z" id="Miloyd" fill="#383A47"></path>
<polygon fill="#D90429" fill-rule="evenodd" points="38.8809524 46 38.7495238 25.0371429 28.7609524 41.86 21.9266667 41.86 11.9380952 25.76 11.9380952 46 0 46 0 0 10.5580952 0 25.5409524 24.5114286 40.1295238 0 63 0 63 46"></polygon>
<path d="M42.0421912,8.63158679 C42.0582278,8.5875998 42.0763678,8.5510496 42.0966635,8.52307451 C42.3923726,8.11644068 43.2385555,6.94736842 43.2385555,6.94736842 L43.3426049,7.19196339 C43.4911433,6.76182924 43.9037621,6 44.9631621,6 C46.439717,6 47.3928911,6.81457427 47.7277661,8.61995283 C48.0107466,10.145539 48.3877582,11.7324794 44.9942101,14.2597483 C41.601549,16.7865821 42.9215333,19.2825212 43.1410871,19.5292432 C43.3610845,19.7755301 44.3435324,20.5156961 45.29715,18.5741201 C46.2512112,16.632544 50.8693818,12.9034299 56.9632202,18.2042546 C61.2372014,21.92162 59.6648412,23.7204715 59.6648412,23.7204715 C59.6648412,23.7204715 56.1777054,22.5499561 55.1730804,23.1352138 C55.1730804,23.1352138 55.2671115,23.5973281 55.0786057,23.997653 C55.0786057,23.997653 54.8659159,24.1225623 54.5076769,24.2817814 C55.1759399,24.8798001 55.9594923,25.536123 56.5032583,25.850301 C57.4890549,26.4196675 57.1467524,27.0407182 56.319341,27.3377973 C56.319341,27.3377973 53.094581,28.3252669 50.9554116,29.7359597 C50.9826836,29.95566 51.0139007,30.1239743 51.0482813,30.2232318 C51.7853748,32.3560817 51.2018605,32.5262907 51.2018605,32.5262907 C51.2018605,33.4375636 50.7411229,40.5173857 50.7411229,40.5173857 C50.7714917,40.7334202 51.0773486,41.7228146 50.5918821,41.8515625 C49.5879772,42.1160411 46.6235513,41.9698359 46.6851565,41.8515625 C46.7467617,41.7319797 47.6686709,41.7839153 47.8218162,41.8458888 C47.9758293,41.9078624 50.0955696,41.3514098 50.1879774,41.2274628 C50.2803852,41.1043886 50.8947021,32.943521 50.4031618,32.6035394 C50.067004,32.371832 50.2230415,31.2421521 50.3322111,30.1858809 C50.1700461,30.3153413 50.0194044,30.4475491 49.8831013,30.5821358 L49.8831013,31.5040473 C49.8831013,31.5040473 49.6074417,31.1775545 48.8103225,34.4210526 C48.8103225,34.4210526 48.2897284,32.3671313 48.8103225,31.1771343 C49.0712505,30.580483 49.4248009,30.1258087 50.3955803,29.4459336 C50.4077564,29.2323279 50.4112268,29.0338674 50.400125,28.8611233 C50.3519688,28.1139493 49.9732268,26.1438891 49.8669361,25.6184234 C49.8231595,25.4020064 49.6979916,24.928629 49.5659013,24.4466634 C49.1618045,24.2250827 48.7740037,23.9184114 48.4188063,23.5046441 C48.4188063,23.5046441 41.2569161,22.7649132 41.0054271,18.4505415 C40.8461952,15.7183236 44.2437352,13.2119412 44.2437352,13.2119412 C44.2437352,13.2119412 48.2932836,10.1598985 46.1886716,8.24965224 C46.1886716,8.24965224 45.0301371,9.79786552 43.7691441,8.80358015 C43.7493074,8.78795786 43.7302028,8.7721091 43.7118043,8.75606067 C43.4891779,9.23129936 43.1103755,9.51628268 43.0263879,9.57541811 C43.1224471,9.5968241 43.1977795,9.58580528 43.1977795,9.58580528 C43.0981141,9.90661791 42.9842367,10.1453917 42.8791736,10.3196991 C42.6469655,11.4408524 42.4189106,11.6842105 42.4189106,11.6842105 C42.0858409,11.2965437 41.9100191,10.008237 41.954045,9.18192103 C41.9316854,8.81182758 41.9726532,8.54614779 41.9726532,8.54614779 C41.9726532,8.54614779 41.9697563,8.59129668 42.0421912,8.63158679 Z M50.9293064,24.8971853 C50.8073642,26.1197205 50.814312,27.9223566 50.8972774,29.1097114 C51.8842363,28.4727499 53.3634037,27.6368862 55.6446891,26.3852114 C55.6446891,26.3852114 54.5422278,25.5001593 53.4877075,24.6587047 C52.7550483,24.8762451 51.8458512,25.0318402 50.9293064,24.8971853 Z" id="Shape" fill="#FFFFFF" fill-rule="nonzero"></path>
</svg>