<?xml version="1.0" encoding="UTF-8"?>
<svg width="164px" height="34px" viewBox="0 0 164 34" version="1.1" xmlns="http://www.w3.org/2000/svg" xmlns:xlink="http://www.w3.org/1999/xlink">
    <!-- Generator: sketchtool 49.3 (51167) - http://www.bohemiancoding.com/sketch -->
    <title>B09E1437-C4FB-452E-AD14-5A8DBDC6B533</title>
    <desc>Created with sketchtool.</desc>
    <defs></defs>
    <g id="Symbols" stroke="none" stroke-width="1" fill="none" fill-rule="evenodd">
        <g id="logo-footer">
            <path d="M74.28,26 L74.256,15.92 L69.312,24.224 L67.56,24.224 L62.64,16.136 L62.64,26 L58.992,26 L58.992,9.2 L62.208,9.2 L68.496,19.64 L74.688,9.2 L77.88,9.2 L77.928,26 L74.28,26 Z M82.912,9.2 L86.8,9.2 L86.8,26 L82.912,26 L82.912,9.2 Z M91.784,9.2 L95.672,9.2 L95.672,22.832 L104.096,22.832 L104.096,26 L91.784,26 L91.784,9.2 Z M115.128,26.288 C113.383991,26.288 111.812007,25.9120038 110.412,25.16 C109.011993,24.4079962 107.916004,23.3720066 107.124,22.052 C106.331996,20.7319934 105.936,19.2480082 105.936,17.6 C105.936,15.9519918 106.331996,14.4680066 107.124,13.148 C107.916004,11.8279934 109.011993,10.7920038 110.412,10.04 C111.812007,9.28799624 113.383991,8.912 115.128,8.912 C116.872009,8.912 118.439993,9.28799624 119.832,10.04 C121.224007,10.7920038 122.319996,11.8279934 123.12,13.148 C123.920004,14.4680066 124.32,15.9519918 124.32,17.6 C124.32,19.2480082 123.920004,20.7319934 123.12,22.052 C122.319996,23.3720066 121.224007,24.4079962 119.832,25.16 C118.439993,25.9120038 116.872009,26.288 115.128,26.288 Z M115.128,22.976 C116.120005,22.976 117.015996,22.7480023 117.816,22.292 C118.616004,21.8359977 119.243998,21.2000041 119.7,20.384 C120.156002,19.5679959 120.384,18.6400052 120.384,17.6 C120.384,16.5599948 120.156002,15.6320041 119.7,14.816 C119.243998,13.9999959 118.616004,13.3640023 117.816,12.908 C117.015996,12.4519977 116.120005,12.224 115.128,12.224 C114.135995,12.224 113.240004,12.4519977 112.44,12.908 C111.639996,13.3640023 111.012002,13.9999959 110.556,14.816 C110.099998,15.6320041 109.872,16.5599948 109.872,17.6 C109.872,18.6400052 110.099998,19.5679959 110.556,20.384 C111.012002,21.2000041 111.639996,21.8359977 112.44,22.292 C113.240004,22.7480023 114.135995,22.976 115.128,22.976 Z M135.592,20.048 L135.592,26 L131.704,26 L131.704,20 L125.2,9.2 L129.328,9.2 L133.816,16.664 L138.304,9.2 L142.12,9.2 L135.592,20.048 Z M144.584,9.2 L152.216,9.2 C154.040009,9.2 155.651993,9.54799652 157.052,10.244 C158.452007,10.9400035 159.539996,11.9199937 160.316,13.184 C161.092004,14.4480063 161.48,15.9199916 161.48,17.6 C161.48,19.2800084 161.092004,20.7519937 160.316,22.016 C159.539996,23.2800063 158.452007,24.2599965 157.052,24.956 C155.651993,25.6520035 154.040009,26 152.216,26 L144.584,26 L144.584,9.2 Z M152.024,22.808 C153.704008,22.808 155.043995,22.3400047 156.044,21.404 C157.044005,20.4679953 157.544,19.200008 157.544,17.6 C157.544,15.999992 157.044005,14.7320047 156.044,13.796 C155.043995,12.8599953 153.704008,12.392 152.024,12.392 L148.472,12.392 L148.472,22.808 L152.024,22.808 Z" id="Miloyd" fill="#FFFFFF"></path>
            <g id="M">
                <polygon fill="#D90429" fill-rule="evenodd" points="29.0064248 34 28.9083749 18.5057143 21.4565835 30.94 16.3579894 30.94 8.90619803 19.04 8.90619803 34 0 34 0 0 7.87667423 0 19.0543613 18.1171429 29.9378987 0 47 0 47 34"></polygon>
                <path d="M31.3648093,6.3798685 C31.3767731,6.34735637 31.3903061,6.32034101 31.4054474,6.29966376 C31.6260557,5.99910833 32.257335,5.13501144 32.257335,5.13501144 L32.3349592,5.31579903 C32.4457736,4.99787378 32.7536003,4.43478261 33.5439463,4.43478261 C34.6455032,4.43478261 35.3566013,5.03685924 35.6064287,6.37126948 C35.8175411,7.49887669 36.0988038,8.67183261 33.5671091,10.539814 C31.0360763,12.4074737 32.0208264,14.2522983 32.1846205,14.434658 C32.3487455,14.6166961 33.0816829,15.1637754 33.7931119,13.7286974 C34.5048718,12.2936195 37.9501737,9.53731778 42.4963707,13.4553186 C45.6848963,16.2029365 44.5118656,17.5325224 44.5118656,17.5325224 C44.5118656,17.5325224 41.9103517,16.6673589 41.1608695,17.0999407 C41.1608695,17.0999407 41.2310197,17.4415034 41.0903884,17.7373957 C41.0903884,17.7373957 40.931715,17.82972 40.6644574,17.9474037 C41.1630028,18.3894175 41.7475578,18.8745257 42.1532244,19.1067442 C42.88866,19.5275804 42.6332915,19.9866178 42.0160163,20.206198 C42.0160163,20.206198 39.610243,20.9360669 38.0143547,21.9787528 C38.0347005,22.14114 38.0579894,22.2655462 38.0836385,22.3389105 C38.6335336,23.9153647 38.1982134,24.0411714 38.1982134,24.0411714 C38.1982134,24.7147209 37.8544885,29.9476329 37.8544885,29.9476329 C37.8771446,30.1073106 38.1053235,30.8386021 37.7431501,30.9337636 C36.9942052,31.1292478 34.7826494,31.0211831 34.8286088,30.9337636 C34.8745683,30.8453763 35.5623418,30.8837635 35.6765931,30.92957 C35.7914917,30.9753765 37.3728852,30.5640855 37.4418244,30.4724725 C37.5107636,30.3815046 37.9690635,24.349559 37.6023588,24.0982683 C37.3515744,23.9270062 37.4679833,23.0920254 37.5494273,22.3113033 C37.4284471,22.4069914 37.3160636,22.5047102 37.2143771,22.6041873 L37.2143771,23.2856002 C37.2143771,23.2856002 37.0087264,23.0442794 36.4140501,25.4416476 C36.4140501,25.4416476 36.0256704,23.9235318 36.4140501,23.0439688 C36.6087107,22.6029657 36.8724705,22.2669021 37.5967028,21.7643857 C37.6057866,21.6065032 37.6083756,21.459815 37.6000932,21.3321346 C37.5641672,20.7798756 37.2816136,19.3237441 37.2023174,18.9353564 C37.1696587,18.775396 37.0762794,18.4255084 36.9777359,18.0692729 C36.6762669,17.9054959 36.3869551,17.6788258 36.1219666,17.3729978 C36.1219666,17.3729978 30.7789691,16.8262402 30.5913504,13.6373567 C30.4725583,11.6178914 33.007231,9.76534787 33.007231,9.76534787 C33.007231,9.76534787 36.0283227,7.50949022 34.4582153,6.09756905 C34.4582153,6.09756905 33.5939118,7.2419006 32.653171,6.50699402 C32.6383722,6.49544712 32.6241195,6.48373281 32.6103937,6.47187093 C32.4443073,6.82313431 32.1617087,7.03377416 32.0990513,7.07748295 C32.1707145,7.09330477 32.2269149,7.08516043 32.2269149,7.08516043 C32.1525613,7.3222828 32.0676051,7.49876781 31.9892248,7.62760366 C31.8159901,8.45628224 31.6458539,8.63615561 31.6458539,8.63615561 C31.3973734,8.34961924 31.2662047,7.39739254 31.2990495,6.78663728 C31.2823685,6.51308995 31.3129317,6.31671793 31.3129317,6.31671793 C31.3129317,6.31671793 31.3107706,6.35008885 31.3648093,6.3798685 Z M37.9948794,18.4022674 C37.9039066,19.3058804 37.9090899,20.6382635 37.9709847,21.5158736 C38.7072874,21.045076 39.8107933,20.4272637 41.5127045,19.5021128 C41.5127045,19.5021128 40.6902334,18.8479439 39.9035278,18.2259991 C39.3569408,18.3867898 38.6786509,18.501795 37.9948794,18.4022674 Z" id="Shape" fill="#FFFFFF" fill-rule="nonzero"></path>
            </g>
        </g>
    </g>
</svg>