<?xml version="1.0" encoding="UTF-8"?>
<svg width="20px" height="20px" viewBox="0 0 20 20" version="1.1" xmlns="http://www.w3.org/2000/svg" xmlns:xlink="http://www.w3.org/1999/xlink">
    <!-- Generator: sketchtool 49.3 (51167) - http://www.bohemiancoding.com/sketch -->
    <title>272CC01F-7352-4CF4-9020-508303639782</title>
    <desc>Created with sketchtool.</desc>
    <defs>
        <path d="M17.7972987,2.2027013 C16.3768312,0.782233766 14.4882597,-5.19480519e-05 12.4794286,0 C12.4793247,0 12.4794286,0 12.4793247,0 C10.4707013,0 8.58192208,0.782337662 7.16150649,2.2027013 C5.74109091,3.62316883 4.95880519,5.51179221 4.95880519,7.52062338 C4.95880519,8.89142857 5.32337662,10.2061299 6.00612987,11.3544416 L0.532571429,16.8279481 C0.189194805,17.1714286 0,17.6280519 0,18.1137662 C0,18.5994805 0.189142857,19.0561039 0.532571429,19.3994805 L0.600467532,19.4673766 C0.943896104,19.8108571 1.40051948,20 1.88628571,20 C2.37205195,20 2.82862338,19.8108571 3.17205195,19.4674286 L8.64555844,13.9938701 C9.79381818,14.6766753 11.1085714,15.0411948 12.4793766,15.0411948 C14.4882078,15.0411948 16.3768312,14.2589091 17.7972987,12.8384935 C19.2177662,11.4180779 20,9.52945455 20,7.52062338 C20,5.51179221 19.2178182,3.62322078 17.7972987,2.2027013 Z M2.25371429,18.5490909 C2.15553247,18.6472727 2.02503896,18.7012987 1.88623377,18.7012987 C1.74748052,18.7012987 1.61698701,18.6472208 1.51880519,18.5490909 L1.45085714,18.4810909 C1.35272727,18.382961 1.29864935,18.2525195 1.29864935,18.1137662 C1.29864935,17.9749091 1.35272727,17.8444156 1.45085714,17.7462857 L6.77496104,12.4222338 C6.89802597,12.564987 7.02685714,12.7038442 7.16145455,12.8384935 C7.29605195,12.9731429 7.43496104,13.101974 7.57771429,13.224987 L2.25371429,18.5490909 Z M16.878961,11.9201558 C15.7037922,13.0953247 14.1412987,13.7424935 12.4794286,13.7424935 C10.8175065,13.7424935 9.25506494,13.0953247 8.07994805,11.9201558 C6.90477922,10.744987 6.25755844,9.18254545 6.25761039,7.52067532 C6.25761039,5.8587013 6.90477922,4.29625974 8.07994805,3.12109091 C9.25511688,1.94592208 10.8175065,1.2987013 12.4794286,1.29875325 C14.1414026,1.29875325 15.7038442,1.94592208 16.879013,3.12109091 C18.0541818,4.29625974 18.7014026,5.85875325 18.7013506,7.52067532 C18.7012987,9.18254545 18.0541299,10.744987 16.878961,11.9201558 Z" id="path-1"></path>
    </defs>
    <g id="Symbols" stroke="none" stroke-width="1" fill="none" fill-rule="evenodd">
        <g id="header-main/1440" transform="translate(-1172.000000, -15.000000)">
            <g id="header">
                <g id="header-top">
                    <g id="header-top-right-[12h-m]" transform="translate(1034.000000, 12.000000)">
                        <g id="поиск-[8h]" transform="translate(138.000000, 0.000000)">
                            <g id="icons/loupe" transform="translate(0.000000, 3.000000)">
                                <mask id="mask-2" fill="white">
                                    <use xlink:href="#path-1"></use>
                                </mask>
                                <use id="Mask" fill="#383A47" fill-rule="nonzero" xlink:href="#path-1"></use>
                                <g id="color/main" mask="url(#mask-2)" fill="#383A47" fill-rule="evenodd">
                                    <rect id="Rectangle" x="0" y="0" width="20" height="20"></rect>
                                </g>
                            </g>
                        </g>
                    </g>
                </g>
            </g>
        </g>
    </g>
</svg>