<svg xmlns="http://www.w3.org/2000/svg" xmlns:xlink="http://www.w3.org/1999/xlink" viewBox="0 0 30 30"><path d="M14.9791622,29.0014324 C14.6971622,29.0014324 14.427973,28.8839459 14.2361351,28.6772703 L2.26289189,15.7724054 C2.25981081,15.7690811 2.25672973,15.7657568 2.25372973,15.7624324 C0.800351351,14.1532162 0,12.0206216 0,9.75740541 C0,7.49410811 0.800351351,5.36159459 2.25372973,3.75245946 L2.43567568,3.55105405 C3.91508108,1.91313514 5.89037838,1.01102703 7.99775676,1.01102703 C10.1051351,1.01102703 12.0805135,1.91313514 13.56,3.55113514 L14.9791622,5.12248649 L16.3983243,3.55121622 C17.8777297,1.91321622 19.853027,1.01110811 21.9604865,1.01110811 C24.0679459,1.01110811 26.0432432,1.91321622 27.5227297,3.5512973 L27.7044324,3.75221622 C29.1580541,5.36175676 29.9584054,7.49427027 29.9584054,9.75748649 C29.9584054,12.0207027 29.157973,14.1532973 27.7046757,15.7624324 C27.7016757,15.7659189 27.6985946,15.7692432 27.6955135,15.7725676 L15.7221892,28.6774324 C15.5303514,28.8838649 15.2611622,29.0014324 14.9791622,29.0014324 Z M3.75364865,14.3988108 L14.9791622,26.4976486 L26.2046757,14.3987297 C28.5142703,11.8363243 28.5128108,7.67143243 26.2002162,5.11097297 L26.0186757,4.91005405 C24.9282162,3.70267568 23.487,3.03789189 21.9604865,3.03789189 C20.4338919,3.03789189 18.9926757,3.70267568 17.9025405,4.90964865 L15.7313514,7.3137027 C15.5392703,7.52645946 15.2659459,7.64783784 14.9793243,7.64783784 C14.6927027,7.64783784 14.4193784,7.52645946 14.2272162,7.3137027 L12.0559459,4.90981081 C10.9657297,3.70275676 9.52459459,3.03797297 7.998,3.03797297 C6.47140541,3.03797297 5.03018919,3.70267568 3.94005405,4.90972973 L3.75810811,5.11113514 C1.44551351,7.67159459 1.44397297,11.8364865 3.75364865,14.3988108 Z"/></svg>