<?xml version="1.0" encoding="UTF-8"?>
<svg width="30px" height="30px" viewBox="0 0 30 30" version="1.1" xmlns="http://www.w3.org/2000/svg" xmlns:xlink="http://www.w3.org/1999/xlink">
    <!-- Generator: sketchtool 49.3 (51167) - http://www.bohemiancoding.com/sketch -->
    <title>54579F9F-C204-464E-A64D-FC79DAE914C1</title>
    <desc>Created with sketchtool.</desc>
    <defs>
        <path d="M13.8262533,20.313375 C11.8106793,20.1031585 9.99334071,19.6067533 8.43741129,18.3898389 C8.24434969,18.2384394 8.04502517,18.0924859 7.86884625,17.9233868 C7.18782079,17.2693192 7.11920087,16.5202184 7.65808508,15.7482443 C8.11909111,15.0876415 8.8929713,14.910918 9.69734924,15.2902336 C9.85310556,15.363755 10.0015097,15.4555205 10.143651,15.5540935 C13.0433872,17.5465219 17.0268823,17.6015267 19.9375105,15.6436807 C20.2258776,15.422572 20.5341226,15.2423086 20.8913819,15.1502708 C21.5860224,14.9719134 22.2338271,15.2270597 22.6066075,15.8348362 C23.0324867,16.5289321 23.0270407,17.2064176 22.5023161,17.7453018 C21.6973936,18.5714638 20.7293626,19.1691651 19.6537726,19.5863307 C18.6367274,19.9806229 17.5227429,20.1791305 16.4201951,20.3109243 C16.5865712,20.4920047 16.664994,20.5810472 16.769013,20.6856109 C18.2661254,22.189803 19.769773,23.6877323 21.2619839,25.1965536 C21.7703703,25.7106584 21.8765678,26.3481156 21.5966421,26.9460892 C21.2905755,27.5996122 20.6054655,28.0295759 19.9336983,27.983557 C19.5080915,27.9541485 19.1761562,27.7422981 18.8812539,27.4452174 C17.751476,26.3083596 16.6004586,25.1924691 15.4935539,24.0340995 C15.1714215,23.6972628 15.0164821,23.7609813 14.7321996,24.0534329 C13.5956141,25.2235114 12.4405122,26.3756181 11.2786027,27.5211895 C10.7568735,28.0355666 10.1360266,28.128149 9.53097316,27.8343359 C8.88779758,27.522551 8.47852878,26.8660326 8.51011573,26.2062467 C8.53189983,25.7599449 8.75137465,25.4190237 9.05771357,25.1132294 C10.5393047,23.6338166 12.0168114,22.1505917 13.4948627,20.6687282 C13.5926188,20.5701551 13.6838397,20.4655914 13.8262533,20.313375 Z M15.0540597,15.1600736 C11.4583215,15.1478201 8.50984343,12.1669381 8.53081062,8.56548163 C8.55150552,4.92426913 11.5018897,1.98995072 15.1330271,2.00002587 C18.7715165,2.00982871 21.6919476,4.98635382 21.6737034,8.66541619 C21.6551869,12.2595206 18.6862862,15.1725995 15.0540597,15.1600736 Z M18.3219471,8.57419527 C18.3156842,6.78599287 16.8915486,5.36240187 15.1068861,5.36076806 C13.3072471,5.35886195 11.8703133,6.80832157 11.8842007,8.61286205 C11.8975434,10.3942569 13.3339326,11.8077728 15.1234965,11.8012375 C16.9076144,11.7949746 18.3279378,10.3621254 18.3219471,8.57419527 Z" id="path-1"></path>
    </defs>
    <g id="Symbols" stroke="none" stroke-width="1" fill="none" fill-rule="evenodd">
        <g id="icons/soc/ok">
            <mask id="mask-2" fill="white">
                <use xlink:href="#path-1"></use>
            </mask>
            <use id="Shape" fill="#383a47" fill-rule="nonzero" xlink:href="#path-1"></use>
            <g id="color/white" mask="url(#mask-2)" fill="#383a47">
                <rect id="Rectangle" x="0" y="0" width="30" height="30"></rect>
            </g>
        </g>
    </g>
</svg>