<?xml version="1.0" encoding="UTF-8"?>
<svg width="30px" height="30px" viewBox="0 0 30 30" version="1.1" xmlns="http://www.w3.org/2000/svg" xmlns:xlink="http://www.w3.org/1999/xlink">
    <!-- Generator: sketchtool 49.3 (51167) - http://www.bohemiancoding.com/sketch -->
    <title>AA3DAD16-18CA-48F6-8B4E-D23EF28AF371</title>
    <desc>Created with sketchtool.</desc>
    <defs>
        <path d="M8.46827664,7.75926932 C5.86592616,10.1116765 4.76813613,13.6941967 5.59147865,17.1051872 C5.67969392,17.4580482 5.45915574,17.8158102 5.10629466,17.9040254 C5.05238533,17.918728 5.00337685,17.9236288 4.94946751,17.9236288 C4.65051576,17.9236288 4.3809691,17.722694 4.30745638,17.4188414 C3.36649349,13.5373695 4.62111067,9.4598637 7.58122309,6.77909965 C9.73269552,4.828562 12.5212782,3.83368978 15.4225805,3.98071523 C17.765186,4.09833559 19.9558652,4.94128151 21.7348732,6.39683347 L21.6319553,3.68666433 C21.6172528,3.3191007 21.901502,3.0152481 22.2690656,3.00054556 C22.6317284,2.98584301 22.9404819,3.27009222 22.9551844,3.63765584 L23.1169124,7.9602041 L23.1169124,7.96510495 C23.1169124,7.97490665 23.1169124,7.9798075 23.1169124,7.98960919 L23.1169124,8.03861768 C23.1169124,8.39637961 22.837564,8.68552966 22.4798021,8.70023221 L18.1082454,8.8619602 C18.0984437,8.8619602 18.0935428,8.8619602 18.0837411,8.8619602 C17.7308801,8.8619602 17.4368291,8.58261184 17.4221266,8.22484991 C17.4074241,7.85728629 17.6916733,7.55343369 18.0592369,7.53873114 L20.9066298,7.43091248 C17.3143079,4.505106 12.01159,4.55411449 8.46827664,7.75926932 Z M25.6359485,12.5817041 C26.5769113,16.4680769 25.3222942,20.5406819 22.3621818,23.2214459 C20.3430322,25.0445615 17.7749877,26.0345329 15.0746202,26.0345329 C14.8932888,26.0345329 14.7070566,26.029632 14.5208244,26.0198303 C12.1929214,25.90221 10.0120439,25.0641649 8.23303592,23.6233155 L8.46827664,26.2746744 C8.50258258,26.6422381 8.23303592,26.9607932 7.87037314,26.9950992 C7.85076975,27 7.83116635,27 7.81156296,27 C7.47340442,27 7.18425437,26.740255 7.15484928,26.3971957 L6.76278141,22.0403415 C6.72847547,21.6727778 6.99802213,21.3542227 7.36068491,21.3199167 L11.7175391,20.9278489 C12.0851027,20.8935429 12.4036579,21.1581887 12.4379638,21.5257524 C12.4722698,21.893316 12.2027231,22.2118711 11.8400603,22.2461771 L8.95836148,22.505922 C10.7128652,23.9663749 12.8888419,24.706403 15.0697194,24.706403 C17.3535147,24.706403 19.6471118,23.8928621 21.4751282,22.2412762 C24.0774787,19.888869 25.1801696,16.3063489 24.3519262,12.8953584 C24.2637109,12.5424973 24.4842491,12.1847354 24.8371102,12.0965201 C25.1899713,12.0083049 25.5477332,12.228843 25.6359485,12.5817041 Z" id="path-1"></path>
    </defs>
    <g id="Symbols" stroke="none" stroke-width="1" fill="none" fill-rule="evenodd">
        <g id="icons/refresh">
            <mask id="mask-2" fill="white">
                <use xlink:href="#path-1"></use>
            </mask>
            <use id="Shape" fill="#000000" fill-rule="nonzero" xlink:href="#path-1"></use>
            <g id="color/main" mask="url(#mask-2)" fill="#383A47">
                <rect id="Rectangle" x="0" y="0" width="30" height="30"></rect>
            </g>
        </g>
    </g>
</svg>