<?xml version="1.0" encoding="UTF-8"?>
<svg width="30px" height="30px" viewBox="0 0 30 30" version="1.1" xmlns="http://www.w3.org/2000/svg" xmlns:xlink="http://www.w3.org/1999/xlink">
    <!-- Generator: sketchtool 49.3 (51167) - http://www.bohemiancoding.com/sketch -->
    <title>BA5507F7-3674-4C54-B726-CC69DFCD151D</title>
    <desc>Created with sketchtool.</desc>
    <defs>
        <path d="M26.4560686,7.26768289 C26.0790376,7.43490815 25.6914001,7.57604317 25.295324,7.69062344 C25.7642515,7.1603026 26.1217729,6.53630464 26.3400174,5.85346817 C26.3889462,5.70041061 26.3382367,5.53287567 26.2124307,5.43277278 C26.0867795,5.33259246 25.9121994,5.3205925 25.7738515,5.40257933 C24.9326929,5.90146801 24.0251862,6.25999587 23.0736281,6.4696468 C22.1151022,5.53303051 20.8132226,5 19.4673689,5 C16.626475,5 14.3152052,7.31119243 14.3152052,10.1520089 C14.3152052,10.3757501 14.3293728,10.5982526 14.3573986,10.8176584 C10.8321198,10.5081368 7.55473698,8.77541989 5.30416371,6.01473216 C5.22395752,5.91633248 5.10039663,5.8633004 4.97389382,5.8734423 C4.84731359,5.88335194 4.73358493,5.95473236 4.66963676,6.06443522 C4.21317373,6.84768427 3.9718584,7.74350069 3.9718584,8.65495577 C3.9718584,9.89637105 4.41508275,11.0742253 5.19802212,11.9945835 C4.95995838,11.9121322 4.72893979,11.8090874 4.50845019,11.6866878 C4.39007638,11.6208041 4.24561234,11.6218106 4.12801272,11.6892426 C4.01033569,11.7566746 3.93655529,11.8807 3.93345852,12.0162609 C3.93291659,12.0390995 3.93291659,12.0619382 3.93291659,12.0850865 C3.93291659,13.9381126 4.93022945,15.6064169 6.45499865,16.5157042 C6.32400553,16.5026204 6.19308983,16.4836527 6.06302574,16.4588012 C5.92893586,16.4331754 5.79105244,16.4801688 5.70062693,16.5824395 C5.61004658,16.6846327 5.58008539,16.8270838 5.62181428,16.9571479 C6.18619953,18.7192067 7.63927864,20.0152798 9.39591804,20.4104269 C7.93896798,21.3229659 6.2728315,21.8009514 4.52377917,21.8009514 C4.15882553,21.8009514 3.79178157,21.7795063 3.43255694,21.7370032 C3.25410591,21.7157904 3.08347421,21.8211578 3.02270022,21.9908605 C2.96192622,22.1606405 3.02633891,22.3499302 3.17815777,22.4472461 C5.42509234,23.8879381 8.02319996,24.6494324 10.6914493,24.6494324 C15.9369031,24.6494324 19.2183117,22.1758921 21.0473379,20.1008279 C23.3281047,17.5134042 24.6361778,14.0886154 24.6361778,10.7047039 C24.6361778,10.5633366 24.63401,10.4205758 24.6296746,10.2782795 C25.5295168,9.60032041 26.3042497,8.77983278 26.9346735,7.8367907 C27.0304409,7.69356537 27.0200667,7.50427567 26.9091252,7.37243094 C26.7983384,7.24050879 26.6136939,7.19785086 26.4560686,7.26768289 Z" id="path-1"></path>
    </defs>
    <g id="Symbols" stroke="none" stroke-width="1" fill="none" fill-rule="evenodd">
        <g id="icons/soc/twitter">
            <mask id="mask-2" fill="white">
                <use xlink:href="#path-1"></use>
            </mask>
            <use id="twitter" fill="#383a47" fill-rule="nonzero" xlink:href="#path-1"></use>
            <g id="color/white" mask="url(#mask-2)" fill="#383a47">
                <rect id="Rectangle" x="0" y="0" width="30" height="30"></rect>
            </g>
        </g>
    </g>
</svg>