<?xml version="1.0" encoding="UTF-8"?>
<svg width="30px" height="30px" viewBox="0 0 30 30" version="1.1" xmlns="http://www.w3.org/2000/svg" xmlns:xlink="http://www.w3.org/1999/xlink">
    <!-- Generator: sketchtool 49.3 (51167) - http://www.bohemiancoding.com/sketch -->
    <title>35D41D7D-830F-495F-BF0D-A6359A345430</title>
    <desc>Created with sketchtool.</desc>
    <defs>
        <path d="M28.8515029,21.4273851 C28.8175981,21.3543163 28.7859911,21.2937063 28.7566308,21.2451469 C28.2708324,20.3702095 27.3424847,19.2962857 25.9721494,18.0230692 L25.9431975,17.9939131 L25.9286961,17.9796159 L25.9140415,17.9649613 L25.8993358,17.9649613 C25.2774077,17.3720871 24.8835709,16.9734506 24.7186426,16.7693581 C24.4168696,16.3805765 24.3492642,15.9870461 24.5141926,15.5883075 C24.6307148,15.2870451 25.0684133,14.6508198 25.8262669,13.6787635 C26.2249034,13.1636049 26.5406162,12.7507222 26.7737626,12.439656 C28.4552662,10.204187 29.1842701,8.77569275 28.9606211,8.15361146 L28.8737656,8.0082396 C28.8154024,7.92072032 28.6647713,7.84065601 28.4220763,7.76763818 C28.1788197,7.69477354 27.8679067,7.68272304 27.4887757,7.73128245 L23.2903014,7.76028534 C23.2222876,7.73618435 23.1251688,7.73843105 22.9986386,7.76763818 C22.8722616,7.79684532 22.8090476,7.81149994 22.8090476,7.81149994 L22.7359787,7.84800886 L22.6779729,7.89187062 C22.6293624,7.92087351 22.5759011,7.97188387 22.5175379,8.04479957 C22.4594811,8.11745998 22.4109217,8.20273255 22.372115,8.29990243 C21.9150131,9.47589801 21.39531,10.5692762 20.8120354,11.579986 C20.4524098,12.1826639 20.1221445,12.7049712 19.8205247,13.1472141 C19.5193134,13.5893039 19.2666104,13.9150247 19.0626711,14.1238149 C18.8584254,14.3328093 18.6740937,14.5002397 18.5085526,14.6267188 C18.3432668,14.753249 18.217094,14.8067103 18.1297279,14.7871538 C18.0421576,14.7675973 17.9596934,14.7481939 17.8816205,14.7287906 C17.7456439,14.6412713 17.6362703,14.5222471 17.5538062,14.3716159 C17.4709845,14.2209848 17.4152255,14.0313937 17.3860694,13.802996 C17.3570665,13.574445 17.3399099,13.3778586 17.335008,13.2125728 C17.3304635,13.0474912 17.332557,12.8139873 17.3424119,12.5127249 C17.352522,12.2113094 17.3570665,12.00737 17.3570665,11.9004474 C17.3570665,11.5310691 17.3642662,11.1301859 17.3787165,10.6976957 C17.3934222,10.2652054 17.4053195,9.92253225 17.4152765,9.67008459 C17.4251824,9.41738162 17.429778,9.15002402 17.429778,8.86816498 C17.429778,8.58630594 17.4126213,8.36526105 17.3787165,8.20482607 C17.3452203,8.04459533 17.2938014,7.88906224 17.2260429,7.73827787 C17.1578759,7.58764668 17.0581019,7.47112451 16.9271804,7.38840501 C16.7960036,7.30578764 16.6329134,7.24022477 16.438829,7.19151218 C15.9236703,7.07493895 15.2676842,7.0118781 14.4705644,7.00207431 C12.6629391,6.98267097 11.5014449,7.09939737 10.9863373,7.35210034 C10.7822448,7.45886977 10.5975557,7.60475225 10.432423,7.78928823 C10.2574355,8.00318452 10.2330282,8.11991092 10.3593541,8.13911002 C10.9425777,8.22647611 11.3554603,8.4354705 11.5984616,8.76588895 L11.686032,8.94097856 C11.7541479,9.06730452 11.8221617,9.29095354 11.8902266,9.61161926 C11.9581893,9.93228498 12.0020511,10.2870087 12.0213523,10.6755861 C12.0698607,11.3851866 12.0698607,11.9926133 12.0213523,12.4979171 C11.9726908,13.0034252 11.9267355,13.3969555 11.8828737,13.6788146 C11.839012,13.9606736 11.7734491,14.1890714 11.686032,14.3639567 C11.5984616,14.5388932 11.5402005,14.6458158 11.5109934,14.6846224 C11.4818373,14.7234291 11.4575321,14.7478875 11.4382309,14.7574871 C11.3119049,14.8058933 11.1805239,14.830556 11.0445473,14.830556 C10.9083665,14.830556 10.7432339,14.7624401 10.5488941,14.6263103 C10.3546054,14.4901806 10.1529639,14.3031936 9.94396948,14.0650432 C9.73497508,13.8268416 9.49927556,13.4939722 9.2367688,13.0663839 C8.97446628,12.6387956 8.70230891,12.1334407 8.42044987,11.5503193 L8.18725236,11.1274286 C8.04147201,10.8553733 7.84233247,10.4592388 7.5896295,9.93938252 C7.33677334,9.41932195 7.11327751,8.91626484 6.9189888,8.4303133 C6.84132438,8.2262208 6.72464904,8.0708409 6.56916701,7.96391828 L6.49620024,7.92005652 C6.44769189,7.88124984 6.36982322,7.84004328 6.26300273,7.79613046 C6.15602906,7.7522687 6.04440879,7.72081486 5.92768238,7.70146258 L1.93319852,7.73046547 C1.52501353,7.73046547 1.24805638,7.8229377 1.10222496,8.00762686 L1.04386176,8.09499295 C1.01470569,8.14365448 1,8.22136997 1,8.32834364 C1,8.43526626 1.02915607,8.56649411 1.08751927,8.72187401 C1.6706407,10.0923625 2.30477248,11.4140874 2.98991462,12.6872529 C3.67505676,13.9604183 4.27043292,14.985987 4.77568568,15.7630397 C5.28104056,16.540654 5.79614817,17.2745598 6.32100851,17.9643996 C6.84586885,18.6544947 7.19329075,19.0967377 7.36327422,19.2910264 C7.53346194,19.4856725 7.66714074,19.6311976 7.76431062,19.7283674 L8.1288381,20.0781892 C8.36208667,20.3114889 8.70460668,20.590897 9.15655131,20.9164135 C9.60859807,21.2421343 10.109051,21.5628 10.6581656,21.8789213 C11.2073822,22.1945319 11.8463138,22.4520857 12.5753177,22.6512763 C13.3042194,22.8506712 14.0136668,22.9306844 14.7037619,22.892082 L16.3803126,22.892082 C16.7203306,22.8627217 16.9779355,22.7557991 17.1530251,22.5712631 L17.2110308,22.4981942 C17.2500418,22.4401884 17.2865507,22.350065 17.3202512,22.2287941 C17.3543602,22.107319 17.3713126,21.973487 17.3713126,21.8279109 C17.3613557,21.4100753 17.3931669,21.0334974 17.4658784,20.6982281 C17.5385388,20.3630609 17.6213604,20.1103579 17.7139858,19.9401702 C17.8065602,19.7701357 17.9110319,19.6266531 18.0272987,19.5103352 C18.1438209,19.393762 18.2268467,19.323144 18.2755593,19.2988388 C18.3239656,19.2743804 18.3626191,19.2577854 18.3917751,19.2478284 C18.6250237,19.1701129 18.8995299,19.2453775 19.2157022,19.4739794 C19.5316192,19.7023772 19.8279286,19.9843894 20.10509,20.3195566 C20.3820982,20.6550301 20.7149166,21.0314038 21.1035961,21.4492394 C21.4925309,21.8672282 21.8326,22.177937 22.1240586,22.3823358 L22.4155172,22.5572723 C22.6101633,22.6739987 22.8628663,22.7809213 23.1739325,22.8780912 C23.484437,22.97521 23.7564922,22.9995152 23.9900982,22.9509558 L27.7220242,22.8927458 C28.0911473,22.8927458 28.3783677,22.8316253 28.5821028,22.7103544 C28.7862464,22.5888793 28.9075172,22.4550473 28.9466303,22.3094712 C28.9856412,22.1637419 28.9877347,21.998405 28.9540342,21.8135627 C28.9194656,21.6291799 28.8854077,21.5002498 28.8515029,21.4273851 Z" id="path-1"></path>
    </defs>
    <g id="Symbols" stroke="none" stroke-width="1" fill="none" fill-rule="evenodd">
        <g id="icons/soc/vk">
            <mask id="mask-2" fill="white">
                <use xlink:href="#path-1"></use>
            </mask>
            <use id="Shape" fill="#FFFFFF" fill-rule="nonzero" xlink:href="#path-1"></use>
            <g id="color/white" mask="url(#mask-2)" fill="#FFFFFF">
                <rect id="Rectangle" x="0" y="0" width="30" height="30"></rect>
            </g>
        </g>
    </g>
</svg>