<svg xmlns="http://www.w3.org/2000/svg" viewBox="0 0 59 60"><path fill="#d90429" d="M36.313 7.663h-.031c-.683 0-1.233.553-1.234 1.236a1.24 1.24 0 0 0 1.236 1.239h.013a1.237 1.237 0 0 0 .016-2.475zm4.567 1.355a1.237 1.237 0 0 0-1.336 2.082c1.882 1.207 3.004 3.304 3 5.608 0 .684.552 1.238 1.235 1.24h.002c.683 0 1.236-.553 1.238-1.236.004-3.153-1.543-6.03-4.139-7.694zm7.93 5.401c-.637-6.198-5.722-11.042-11.88-11.042-2.855 0-5.627 1.073-7.78 2.98-2.154-1.907-4.927-2.98-7.78-2.98-6.16 0-11.244 4.844-11.88 11.042C4.559 15.291.838 19.75.838 25.03c0 4.034 2.796 8.724 8.311 13.941a69.054 69.054 0 0 0 6.322 5.266l-1.728 3.101a1.237 1.237 0 0 0 1.075 1.84l1.866.008v9.577a1.237 1.237 0 1 0 2.474 0v-9.565l1.829.008h.006a1.238 1.238 0 0 0 1.086-1.83l-1.709-3.135a70.624 70.624 0 0 0 4.99-4.041l-1.102 1.977a1.237 1.237 0 0 0 .307 1.567 3.26 3.26 0 0 0 3.349.452v14.567a1.237 1.237 0 1 0 2.474 0V44.22a3.254 3.254 0 0 0 3.318-.434 1.24 1.24 0 0 0 .322-1.565l-1.118-2.05a70.569 70.569 0 0 0 4.99 4.047l-1.737 3.119a1.237 1.237 0 0 0 1.075 1.839l1.902.009v9.577a1.237 1.237 0 1 0 2.474 0v-9.565l1.792.008h.006a1.238 1.238 0 0 0 1.086-1.83l-1.7-3.117a69.024 69.024 0 0 0 6.353-5.288c5.515-5.217 8.312-9.907 8.312-13.94 0-5.281-3.722-9.74-8.653-10.612zM16.923 46.713l.604-1.083c.128.043.261.067.395.067.131 0 .262-.023.387-.064l.594 1.09-1.98-.01zm1-3.758c-1.292-.915-4.214-3.071-7.1-5.804-4.914-4.656-7.512-8.847-7.512-12.12 0-3.92 2.632-7.249 6.186-8.088.926 7.82 10.45 16.103 15.65 20.087-2.93 2.792-5.916 4.997-7.225 5.925zm11.207-1.843a3.26 3.26 0 0 0-1.724.495l1.175-2.11c.178.092.372.14.567.14.197 0 .393-.05.573-.143l1.16 2.129a3.26 3.26 0 0 0-1.75-.51zm.019-4.215c-1.445-1.018-4.954-3.588-8.42-6.87-5.779-5.474-8.833-10.416-8.833-14.294 0-5.45 4.249-9.882 9.472-9.882 2.62 0 5.059 1.092 6.866 3.074a1.237 1.237 0 0 0 1.829 0c1.807-1.982 4.245-3.074 6.866-3.074 5.223 0 9.473 4.433 9.473 9.882 0 3.878-3.055 8.82-8.834 14.293-3.466 3.283-6.975 5.853-8.42 6.87zm10.192 9.816l.61-1.094a1.236 1.236 0 0 0 .783.025l.587 1.078-1.98-.01zm8.132-9.562c-2.886 2.733-5.807 4.89-7.098 5.804-1.309-.927-4.291-3.13-7.224-5.925C38.35 33.047 47.875 24.763 48.8 16.943c3.554.84 6.186 4.169 6.186 8.087 0 3.274-2.598 7.465-7.513 12.12zm3.908-9.58a1.237 1.237 0 0 1-.658 2.287 1.237 1.237 0 1 1 .658-2.287zm-2.366 3.398c.514.451.565 1.233.114 1.746-1.726 1.967-3.85 3.996-6.314 6.03a1.235 1.235 0 0 1-1.742-.167 1.237 1.237 0 0 1 .167-1.742c2.362-1.95 4.39-3.885 6.03-5.753a1.237 1.237 0 0 1 1.745-.114zm-31.959 5.867a1.237 1.237 0 1 1-1.575 1.908c-2.463-2.033-4.588-4.062-6.313-6.029a1.237 1.237 0 0 1 1.86-1.632c1.638 1.868 3.667 3.804 6.028 5.753zM56.675.804a1.237 1.237 0 0 1 0 1.75l-2.898 2.898a1.233 1.233 0 0 1-1.75 0 1.237 1.237 0 0 1 0-1.75L54.925.804a1.237 1.237 0 0 1 1.75 0zM6.272 3.702a1.237 1.237 0 0 1-1.75 1.75L1.624 2.554a1.237 1.237 0 0 1 1.75-1.75l2.898 2.898zm-.875 47.143a1.237 1.237 0 0 1 0 2.475H5.38a1.237 1.237 0 1 1 0-2.475h.016zm47.505-40.828a1.237 1.237 0 1 1 0 2.475h-.015a1.237 1.237 0 1 1 0-2.475h.015zm0 41.2a1.237 1.237 0 1 1 0 2.474h-.015a1.237 1.237 0 1 1 0-2.475h.015zM46.096 0a1.237 1.237 0 1 1 0 2.474h-.015a1.237 1.237 0 1 1 0-2.474h.015zM5.412 10.017a1.237 1.237 0 1 1 0 2.475h-.015a1.237 1.237 0 1 1 0-2.475h.015zM12.218 0h-.016a1.237 1.237 0 1 0 0 2.474h.016a1.237 1.237 0 1 0 0-2.474zm45.645 42.964a1.373 1.373 0 0 0 0 1.939 1.237 1.237 0 0 1-1.75 1.75 3.85 3.85 0 0 1 0-5.439 1.373 1.373 0 0 0 0-1.939 1.237 1.237 0 0 1 1.75-1.75 3.85 3.85 0 0 1 0 5.439zm-54.914 0a1.372 1.372 0 0 0 0 1.939 1.237 1.237 0 0 1-1.75 1.75 3.85 3.85 0 0 1 0-5.439 1.373 1.373 0 0 0 0-1.939 1.237 1.237 0 0 1 1.75-1.75 3.85 3.85 0 0 1 0 5.439z"/></svg>