<svg width="30" height="30" xmlns="http://www.w3.org/2000/svg"><path d="M27.309 28.934L25.82 6.244a.95.95 0 0 0-.948-.887H20.72v-.61A4.752 4.752 0 0 0 15.973 0h-1.632a4.752 4.752 0 0 0-4.747 4.747v.61H5.441a.95.95 0 0 0-.947.887L3.002 28.99A.949.949 0 0 0 3.949 30h22.418a.95.95 0 0 0 .942-1.066zM11.493 4.747a2.851 2.851 0 0 1 2.848-2.848h1.632a2.851 2.851 0 0 1 2.848 2.848v.61h-7.328v-.61zM4.963 28.1L6.33 7.256h3.264v.847a2.09 2.09 0 0 0-1.139 1.86 2.09 2.09 0 0 0 2.089 2.088 2.09 2.09 0 0 0 2.088-2.089 2.09 2.09 0 0 0-1.139-1.859v-.847h7.328v.847a2.09 2.09 0 0 0-1.139 1.86 2.09 2.09 0 0 0 2.089 2.088 2.09 2.09 0 0 0 2.088-2.089 2.09 2.09 0 0 0-1.14-1.859v-.847h3.265L25.351 28.1H4.963z" fill="#383A47"/></svg>