<svg width="24" height="24" xmlns="http://www.w3.org/2000/svg" xmlns:xlink="http://www.w3.org/1999/xlink"><defs><path d="M11.96 0C5.367 0 0 5.366 0 11.96c0 6.596 5.366 11.962 11.96 11.962 6.596 0 11.962-5.366 11.962-11.961C23.922 5.366 18.556 0 11.96 0zm0 21.96c-5.513 0-10-4.485-10-10 0-5.513 4.487-10 10-10 5.515 0 10 4.487 10 10 0 5.515-4.485 10-10 10zm1.387-10l3.383-3.382a.98.98 0 1 0-1.386-1.386l-3.383 3.382-3.383-3.382a.98.98 0 0 0-1.386 1.386l3.382 3.383-3.382 3.383a.98.98 0 0 0 1.386 1.386l3.383-3.383 3.383 3.383a.978.978 0 0 0 1.386 0 .98.98 0 0 0 0-1.386l-3.383-3.383z" id="a"/></defs><g fill="none" fill-rule="evenodd"><mask id="b" fill="#fff"><use xlink:href="#a"/></mask><use fill="#383A47" fill-rule="nonzero" xlink:href="#a"/><g mask="url(#b)" fill="#FFF"><path d="M0 0h24v24H0z"/></g></g></svg>