<svg width="30" height="30" xmlns="http://www.w3.org/2000/svg" xmlns:xlink="http://www.w3.org/1999/xlink"><defs><path d="M16.752 10.192V8.038c0-.324.015-.574.045-.751.03-.177.1-.352.205-.524.107-.172.279-.29.516-.356.238-.066.554-.099.949-.099h2.154V2h-3.444c-1.992 0-3.423.473-4.293 1.418-.87.946-1.305 2.339-1.305 4.18v2.594H9V14.5h2.58V27h5.172V14.5h3.444l.455-4.308h-3.899z" id="a"/></defs><g fill="#383a47" fill-rule="evenodd"><mask id="b"><use xlink:href="#a"/></mask><use fill-rule="nonzero" xlink:href="#a"/><g mask="url(#b)"><path d="M0 0h30v30H0z"/></g></g></svg>