<svg width="30" height="30" xmlns="http://www.w3.org/2000/svg" xmlns:xlink="http://www.w3.org/1999/xlink"><defs><path d="M25.17 4.83A2.715 2.715 0 0 0 23.179 4H6.822c-.774 0-1.437.277-1.991.83A2.715 2.715 0 0 0 4 6.823v16.356c0 .774.277 1.437.83 1.991a2.719 2.719 0 0 0 1.992.831h16.357c.773 0 1.437-.277 1.99-.83A2.719 2.719 0 0 0 26 23.179V6.822c0-.774-.277-1.437-.83-1.991zM11.9 11.929c.863-.836 1.902-1.254 3.115-1.254 1.222 0 2.265.418 3.13 1.254.863.835 1.295 1.845 1.295 3.029s-.432 2.194-1.296 3.029c-.864.836-1.907 1.254-3.13 1.254-1.212 0-2.25-.419-3.115-1.254-.864-.835-1.296-1.845-1.296-3.029s.432-2.194 1.296-3.03zM23.507 22.59a.835.835 0 0 1-.258.623.854.854 0 0 1-.616.25H7.324a.846.846 0 0 1-.624-.25.845.845 0 0 1-.25-.623v-9.28h2.019a6.168 6.168 0 0 0-.287 1.876c0 1.834.669 3.397 2.006 4.691 1.337 1.294 2.945 1.94 4.827 1.94a6.885 6.885 0 0 0 3.437-.887 6.688 6.688 0 0 0 2.492-2.414 6.346 6.346 0 0 0 .917-3.33c0-.649-.096-1.274-.286-1.876h1.933v9.281zm0-12.79c0 .277-.095.51-.287.701a.954.954 0 0 1-.701.287h-2.492a.954.954 0 0 1-.702-.287.954.954 0 0 1-.287-.701V7.438c0-.268.096-.5.287-.695a.943.943 0 0 1 .702-.294h2.492a.94.94 0 0 1 .701.294.96.96 0 0 1 .287.695V9.8z" id="a"/></defs><g fill="none" fill-rule="evenodd"><mask id="b" fill="#fff"><use xlink:href="#a"/></mask><use fill="#FFF" fill-rule="nonzero" xlink:href="#a"/><g mask="url(#b)" fill="#FFF"><path d="M0 0h30v30H0z"/></g></g></svg>