<svg width="20" height="20" xmlns="http://www.w3.org/2000/svg" xmlns:xlink="http://www.w3.org/1999/xlink"><defs><path d="M19.96.583A.586.586 0 0 0 19.377 0h-3.308a.585.585 0 0 0-.414.171L8.411 7.414a6.433 6.433 0 0 0-6.53 1.567 6.441 6.441 0 0 0 0 9.099 6.441 6.441 0 0 0 9.099 0 6.433 6.433 0 0 0 1.567-6.53l.5-.5 1.894-.38a.585.585 0 0 0 .46-.458l.336-1.686 1.686-.337a.585.585 0 0 0 .459-.46l.32-1.607h1.174a.585.585 0 0 0 .585-.585V.583zm-1.169 4.369h-1.07a.585.585 0 0 0-.573.47l-.337 1.697-1.685.337a.585.585 0 0 0-.46.459L14.33 9.6l-1.686.337a.585.585 0 0 0-.299.16l-.887.888a.585.585 0 0 0-.131.626 5.265 5.265 0 0 1-1.174 5.642 5.27 5.27 0 0 1-7.445 0 5.27 5.27 0 0 1 0-7.445A5.264 5.264 0 0 1 8.35 8.634a.585.585 0 0 0 .627-.131L16.31 1.17h1.654l-7.273 7.273a.585.585 0 1 0 .827.827l7.273-7.273v2.955zM6.017 13.944a1.757 1.757 0 0 0-2.481 0 1.757 1.757 0 0 0 0 2.481 1.757 1.757 0 0 0 2.481 0 1.757 1.757 0 0 0 0-2.481zm-.827 1.654a.584.584 0 1 1-.827-.826.584.584 0 0 1 .827.826z" id="a"/></defs><g fill="none" fill-rule="evenodd"><mask id="b" fill="#fff"><use xlink:href="#a"/></mask><use fill="#000" fill-rule="nonzero" xlink:href="#a"/><g mask="url(#b)" fill="#383A47"><path d="M0 0h20v20H0z"/></g></g></svg>