<svg viewBox="0 0 229 46" xmlns="http://www.w3.org/2000/svg"><path d="M98.92 36l-.036-15.12-7.416 12.456H88.84l-7.38-12.132V36h-5.472V10.8h4.824l9.432 15.66 9.288-15.66h4.788l.072 25.2H98.92zm12.448-25.2h5.832V36h-5.832V10.8zm12.808 0h5.832v20.448h12.636V36h-18.468V10.8zm34.516 25.632c-2.616 0-4.974-.564-7.074-1.692-2.1-1.128-3.744-2.682-4.932-4.662-1.188-1.98-1.782-4.206-1.782-6.678 0-2.472.594-4.698 1.782-6.678 1.188-1.98 2.832-3.534 4.932-4.662 2.1-1.128 4.458-1.692 7.074-1.692 2.616 0 4.968.564 7.056 1.692 2.088 1.128 3.732 2.682 4.932 4.662 1.2 1.98 1.8 4.206 1.8 6.678 0 2.472-.6 4.698-1.8 6.678-1.2 1.98-2.844 3.534-4.932 4.662-2.088 1.128-4.44 1.692-7.056 1.692zm0-4.968c1.488 0 2.832-.342 4.032-1.026a7.363 7.363 0 0 0 2.826-2.862c.684-1.224 1.026-2.616 1.026-4.176s-.342-2.952-1.026-4.176a7.363 7.363 0 0 0-2.826-2.862c-1.2-.684-2.544-1.026-4.032-1.026s-2.832.342-4.032 1.026a7.363 7.363 0 0 0-2.826 2.862c-.684 1.224-1.026 2.616-1.026 4.176s.342 2.952 1.026 4.176a7.363 7.363 0 0 0 2.826 2.862c1.2.684 2.544 1.026 4.032 1.026zm30.196-4.392V36h-5.832v-9L173.3 10.8h6.192l6.732 11.196 6.732-11.196h5.724l-9.792 16.272zm13.24-16.272h11.448c2.736 0 5.154.522 7.254 1.566 2.1 1.044 3.732 2.514 4.896 4.41 1.164 1.896 1.746 4.104 1.746 6.624 0 2.52-.582 4.728-1.746 6.624-1.164 1.896-2.796 3.366-4.896 4.41S216.312 36 213.576 36h-11.448V10.8zm11.16 20.412c2.52 0 4.53-.702 6.03-2.106s2.25-3.306 2.25-5.706c0-2.4-.75-4.302-2.25-5.706-1.5-1.404-3.51-2.106-6.03-2.106h-5.328v15.624h5.328z" fill="#383A47"/><path fill="#D90429" fill-rule="evenodd" d="M38.881 46l-.131-20.963-9.99 16.823h-6.834l-9.989-16.1V46H0V0h10.558l14.983 24.511L40.13 0H63v46z"/><path d="M42.042 8.632a.447.447 0 0 1 .055-.109l1.142-1.576.104.245c.148-.43.56-1.192 1.62-1.192 1.477 0 2.43.815 2.765 2.62.283 1.526.66 3.112-2.734 5.64-3.392 2.527-2.072 5.023-1.853 5.27.22.246 1.203.986 2.156-.956.954-1.941 5.572-5.67 11.666-.37 4.274 3.718 2.702 5.516 2.702 5.516s-3.487-1.17-4.492-.585c0 0 .094.462-.094.863 0 0-.213.125-.571.284.668.598 1.451 1.254 1.995 1.568.986.57.644 1.19-.184 1.488 0 0-3.224.987-5.364 2.398.028.22.059.388.093.487.737 2.133.154 2.303.154 2.303 0 .912-.46 7.991-.46 7.991.03.216.335 1.206-.15 1.335-1.004.264-3.968.118-3.907 0 .062-.12.984-.068 1.137-.006.154.062 2.274-.495 2.366-.619.092-.123.707-8.283.215-8.623-.336-.232-.18-1.362-.07-2.418-.163.13-.314.262-.45.396v.922s-.276-.326-1.073 2.917c0 0-.52-2.054 0-3.244.261-.597.615-1.051 1.586-1.731.012-.214.015-.412.004-.585-.048-.747-.427-2.717-.533-3.243-.044-.216-.169-.69-.301-1.171a4.117 4.117 0 0 1-1.147-.942s-7.162-.74-7.414-5.054c-.159-2.733 3.239-5.24 3.239-5.24s4.05-3.051 1.945-4.961c0 0-1.159 1.548-2.42.554a1.484 1.484 0 0 1-.057-.048c-.223.475-.602.76-.686.82.096.02.172.01.172.01-.1.32-.214.56-.319.734-.232 1.12-.46 1.364-.46 1.364-.333-.387-.509-1.676-.465-2.502-.022-.37.019-.636.019-.636s-.003.045.07.086zm8.887 16.265c-.122 1.223-.115 3.025-.032 4.213.987-.637 2.466-1.473 4.748-2.725 0 0-1.103-.885-2.157-1.726-.733.217-1.642.373-2.559.238z" fill="#FFF"/></svg>