<svg width="164" height="34" xmlns="http://www.w3.org/2000/svg"><g fill="none" fill-rule="evenodd"><path d="M74.28 26l-.024-10.08-4.944 8.304H67.56l-4.92-8.088V26h-3.648V9.2h3.216l6.288 10.44L74.688 9.2h3.192l.048 16.8H74.28zm8.632-16.8H86.8V26h-3.888V9.2zm8.872 0h3.888v13.632h8.424V26H91.784V9.2zm23.344 17.088c-1.744 0-3.316-.376-4.716-1.128-1.4-.752-2.496-1.788-3.288-3.108-.792-1.32-1.188-2.804-1.188-4.452 0-1.648.396-3.132 1.188-4.452.792-1.32 1.888-2.356 3.288-3.108 1.4-.752 2.972-1.128 4.716-1.128 1.744 0 3.312.376 4.704 1.128 1.392.752 2.488 1.788 3.288 3.108.8 1.32 1.2 2.804 1.2 4.452 0 1.648-.4 3.132-1.2 4.452-.8 1.32-1.896 2.356-3.288 3.108-1.392.752-2.96 1.128-4.704 1.128zm0-3.312c.992 0 1.888-.228 2.688-.684a4.908 4.908 0 0 0 1.884-1.908c.456-.816.684-1.744.684-2.784 0-1.04-.228-1.968-.684-2.784a4.908 4.908 0 0 0-1.884-1.908c-.8-.456-1.696-.684-2.688-.684-.992 0-1.888.228-2.688.684a4.908 4.908 0 0 0-1.884 1.908c-.456.816-.684 1.744-.684 2.784 0 1.04.228 1.968.684 2.784a4.908 4.908 0 0 0 1.884 1.908c.8.456 1.696.684 2.688.684zm20.464-2.928V26h-3.888v-6L125.2 9.2h4.128l4.488 7.464 4.488-7.464h3.816l-6.528 10.848zM144.584 9.2h7.632c1.824 0 3.436.348 4.836 1.044 1.4.696 2.488 1.676 3.264 2.94.776 1.264 1.164 2.736 1.164 4.416 0 1.68-.388 3.152-1.164 4.416-.776 1.264-1.864 2.244-3.264 2.94-1.4.696-3.012 1.044-4.836 1.044h-7.632V9.2zm7.44 13.608c1.68 0 3.02-.468 4.02-1.404 1-.936 1.5-2.204 1.5-3.804 0-1.6-.5-2.868-1.5-3.804-1-.936-2.34-1.404-4.02-1.404h-3.552v10.416h3.552z" fill="#FFF"/><path fill="#D90429" d="M29.006 34l-.098-15.494-7.451 12.434h-5.099l-7.452-11.9V34H0V0h7.877l11.177 18.117L29.938 0H47v34z"/><path d="M31.365 6.38a.329.329 0 0 1 .04-.08c.221-.3.852-1.165.852-1.165l.078.18c.11-.317.419-.88 1.209-.88 1.102 0 1.813.602 2.062 1.936.212 1.128.493 2.3-2.039 4.169-2.53 1.867-1.546 3.712-1.382 3.895.164.182.897.729 1.608-.706.712-1.435 4.157-4.192 8.703-.274 3.189 2.748 2.016 4.078 2.016 4.078s-2.602-.866-3.351-.433c0 0 .07.342-.07.637 0 0-.16.093-.427.21.499.442 1.084.928 1.49 1.16.735.42.48.88-.138 1.1 0 0-2.406.73-4.002 1.772.02.162.044.287.07.36.55 1.576.114 1.702.114 1.702 0 .674-.344 5.907-.344 5.907.023.16.251.89-.11.986-.75.195-2.961.087-2.915 0 .046-.089.733-.05.848-.004.114.045 1.696-.366 1.765-.458.069-.09.527-6.122.16-6.374-.25-.171-.134-1.006-.053-1.787a4.246 4.246 0 0 0-.335.293v.682s-.205-.242-.8 2.156c0 0-.388-1.518 0-2.398.195-.441.458-.777 1.183-1.28a3.63 3.63 0 0 0 .003-.432c-.036-.552-.318-2.008-.398-2.397-.032-.16-.126-.51-.224-.866a3.065 3.065 0 0 1-.856-.696s-5.343-.547-5.53-3.736c-.12-2.02 2.415-3.872 2.415-3.872s3.021-2.256 1.451-3.667c0 0-.864 1.144-1.805.409a1.105 1.105 0 0 1-.043-.035 1.637 1.637 0 0 1-.51.605c.07.016.127.008.127.008-.074.237-.16.414-.238.543-.173.828-.343 1.008-.343 1.008-.249-.286-.38-1.239-.347-1.85-.017-.273.014-.47.014-.47s-.002.034.052.064zm6.63 12.022c-.091.904-.086 2.236-.024 3.114.736-.47 1.84-1.089 3.542-2.014 0 0-.823-.654-1.61-1.276-.546.16-1.224.276-1.908.176z" fill="#FFF" fill-rule="nonzero"/></g></svg>