<svg width="20" height="20" xmlns="http://www.w3.org/2000/svg" xmlns:xlink="http://www.w3.org/1999/xlink"><defs><path d="M17.797 2.203A7.471 7.471 0 0 0 12.48 0a7.472 7.472 0 0 0-5.317 2.203A7.472 7.472 0 0 0 4.959 7.52a7.47 7.47 0 0 0 1.047 3.833L.533 16.828c-.344.343-.533.8-.533 1.286 0 .485.19.942.533 1.285l.067.068c.344.344.8.533 1.286.533s.943-.19 1.286-.533l5.474-5.473a7.474 7.474 0 0 0 3.833 1.047 7.472 7.472 0 0 0 5.318-2.203A7.471 7.471 0 0 0 20 7.521a7.471 7.471 0 0 0-2.203-5.318zM2.254 18.549a.516.516 0 0 1-.735 0l-.068-.068a.516.516 0 0 1 0-.735l5.324-5.324a7.704 7.704 0 0 0 .803.803l-5.324 5.324zm14.625-6.629a6.181 6.181 0 0 1-4.4 1.822 6.18 6.18 0 0 1-4.4-1.822 6.18 6.18 0 0 1-1.821-4.4c0-1.661.647-3.224 1.822-4.399a6.18 6.18 0 0 1 4.4-1.822c1.661 0 3.224.647 4.399 1.822a6.181 6.181 0 0 1 1.822 4.4 6.181 6.181 0 0 1-1.822 4.4z" id="a"/></defs><g fill="none" fill-rule="evenodd"><mask id="b" fill="#fff"><use xlink:href="#a"/></mask><use fill="#383A47" fill-rule="nonzero" xlink:href="#a"/><g mask="url(#b)" fill="#383A47"><path d="M0 0h20v20H0z"/></g></g></svg>