<svg width="30" height="30" xmlns="http://www.w3.org/2000/svg" xmlns:xlink="http://www.w3.org/1999/xlink"><defs><path d="M13.826 20.313c-2.015-.21-3.833-.706-5.389-1.923-.193-.152-.392-.298-.568-.467-.681-.654-.75-1.403-.21-2.175.46-.66 1.234-.837 2.038-.458.156.074.305.166.447.264 2.9 1.993 6.883 2.048 9.794.09.288-.221.596-.402.953-.494.695-.178 1.343.077 1.716.685.425.694.42 1.371-.105 1.91-.805.826-1.773 1.424-2.848 1.841-1.017.395-2.131.593-3.234.725.167.181.245.27.349.375 1.497 1.504 3 3.002 4.493 4.51.508.515.615 1.152.335 1.75-.306.654-.992 1.084-1.663 1.038-.426-.03-.758-.242-1.053-.539-1.13-1.137-2.28-2.253-3.387-3.41-.323-.338-.478-.274-.762.018a226.593 226.593 0 0 1-3.453 3.468c-.522.515-1.143.607-1.748.313-.643-.311-1.052-.968-1.02-1.628.02-.446.24-.787.547-1.093 1.481-1.48 2.959-2.962 4.437-4.444.098-.099.189-.203.331-.356zm1.228-5.153c-3.596-.012-6.544-2.993-6.523-6.595C8.55 4.925 11.5 1.99 15.133 2c3.639.01 6.559 2.986 6.54 6.665-.018 3.595-2.987 6.508-6.619 6.495zm3.268-6.586a3.205 3.205 0 0 0-3.215-3.213 3.21 3.21 0 0 0-3.223 3.252 3.205 3.205 0 0 0 3.24 3.188 3.198 3.198 0 0 0 3.198-3.227z" id="a"/></defs><g fill="none" fill-rule="evenodd"><mask id="b" fill="#fff"><use xlink:href="#a"/></mask><use fill="#383a47" fill-rule="nonzero" xlink:href="#a"/><g mask="url(#b)" fill="#383a47"><path d="M0 0h30v30H0z"/></g></g></svg>