<svg width="30" height="30" xmlns="http://www.w3.org/2000/svg" xmlns:xlink="http://www.w3.org/1999/xlink"><defs><path d="M8.468 7.76a9.562 9.562 0 0 0-2.877 9.345.663.663 0 0 1-.642.819.659.659 0 0 1-.642-.505 10.885 10.885 0 0 1 3.274-10.64 10.79 10.79 0 0 1 7.842-2.798 10.76 10.76 0 0 1 6.312 2.416l-.103-2.71a.662.662 0 0 1 1.323-.049l.162 4.322v.079a.66.66 0 0 1-.637.661l-4.372.162h-.024a.664.664 0 0 1-.662-.637.66.66 0 0 1 .637-.686l2.848-.108c-3.593-2.926-8.895-2.877-12.439.328zm17.168 4.822a10.882 10.882 0 0 1-3.274 10.64 10.817 10.817 0 0 1-7.841 2.798 10.809 10.809 0 0 1-6.288-2.397l.235 2.652a.66.66 0 0 1-.598.72C7.85 27 7.831 27 7.812 27a.66.66 0 0 1-.657-.603l-.392-4.357a.66.66 0 0 1 .598-.72l4.357-.392a.658.658 0 0 1 .72.598.66.66 0 0 1-.598.72l-2.882.26a9.545 9.545 0 0 0 6.112 2.2 9.551 9.551 0 0 0 9.282-11.811.663.663 0 0 1 .485-.798.663.663 0 0 1 .799.485z" id="a"/></defs><g fill="none" fill-rule="evenodd"><mask id="b" fill="#fff"><use xlink:href="#a"/></mask><use fill="#000" fill-rule="nonzero" xlink:href="#a"/><g mask="url(#b)" fill="#383A47"><path d="M0 0h30v30H0z"/></g></g></svg>