<svg width="30" height="30" xmlns="http://www.w3.org/2000/svg" xmlns:xlink="http://www.w3.org/1999/xlink"><defs><path d="M26.456 7.268a9.098 9.098 0 0 1-1.16.423 5.131 5.131 0 0 0 1.044-1.838.387.387 0 0 0-.566-.45 9.135 9.135 0 0 1-2.7 1.067A5.178 5.178 0 0 0 19.467 5a5.158 5.158 0 0 0-5.11 5.818 13.19 13.19 0 0 1-9.053-4.803.387.387 0 0 0-.634.05 5.15 5.15 0 0 0-.698 2.59c0 1.241.443 2.42 1.226 3.34a4.364 4.364 0 0 1-.69-.308.387.387 0 0 0-.575.33v.068a5.17 5.17 0 0 0 2.522 4.43 4.442 4.442 0 0 1-.392-.056.387.387 0 0 0-.441.498 5.15 5.15 0 0 0 3.774 3.453 9.115 9.115 0 0 1-4.872 1.391c-.365 0-.732-.021-1.091-.064a.388.388 0 0 0-.255.71 13.894 13.894 0 0 0 7.513 2.202c5.246 0 8.527-2.473 10.356-4.548 2.281-2.588 3.59-6.012 3.59-9.396 0-.142-.003-.284-.007-.427.9-.678 1.674-1.498 2.305-2.441a.387.387 0 0 0-.479-.57z" id="a"/></defs><g fill="none" fill-rule="evenodd"><mask id="b" fill="#fff"><use xlink:href="#a"/></mask><use fill="#383a47" fill-rule="nonzero" xlink:href="#a"/><g mask="url(#b)" fill="#383a47"><path d="M0 0h30v30H0z"/></g></g></svg>