<svg width="30" height="30" xmlns="http://www.w3.org/2000/svg" xmlns:xlink="http://www.w3.org/1999/xlink"><defs><path d="M28.852 21.427a1.918 1.918 0 0 0-.095-.182c-.486-.875-1.415-1.949-2.785-3.222l-.029-.03-.014-.013-.015-.015h-.015c-.622-.593-1.015-.992-1.18-1.196-.302-.388-.37-.782-.205-1.18.117-.302.554-.938 1.312-1.91.399-.515.715-.928.948-1.24 1.681-2.235 2.41-3.663 2.187-4.285l-.087-.146c-.059-.087-.21-.167-.452-.24-.243-.073-.554-.085-.933-.037l-4.199.03a.545.545 0 0 0-.291.007l-.19.043-.073.037-.058.044a.648.648 0 0 0-.16.153 1 1 0 0 0-.146.255 23.805 23.805 0 0 1-1.56 3.28c-.36.603-.69 1.125-.991 1.567-.302.442-.554.768-.758.977a5.288 5.288 0 0 1-.554.503c-.166.126-.292.18-.38.16l-.247-.058a.97.97 0 0 1-.328-.357 1.6 1.6 0 0 1-.168-.569 6.268 6.268 0 0 1-.051-.59c-.005-.166-.002-.399.007-.7.01-.302.015-.506.015-.613 0-.369.007-.77.022-1.202.014-.433.026-.775.036-1.028.01-.253.015-.52.015-.802 0-.282-.017-.503-.051-.663a2.27 2.27 0 0 0-.153-.467.786.786 0 0 0-.299-.35 1.685 1.685 0 0 0-.488-.196c-.515-.117-1.171-.18-1.968-.19-1.808-.02-2.97.097-3.485.35a1.964 1.964 0 0 0-.554.437c-.175.214-.199.33-.073.35.584.087.996.296 1.24.627l.087.175c.068.126.136.35.204.67.068.321.112.676.131 1.065.049.71.049 1.317 0 1.822a21.71 21.71 0 0 1-.138 1.18c-.044.283-.11.511-.197.686a2.89 2.89 0 0 1-.175.32.251.251 0 0 1-.073.073 1.092 1.092 0 0 1-.393.074c-.137 0-.302-.069-.496-.205a3.497 3.497 0 0 1-.605-.561 7.503 7.503 0 0 1-.707-.999 17.426 17.426 0 0 1-.817-1.516l-.233-.423A36.367 36.367 0 0 1 7.59 9.94a22.909 22.909 0 0 1-.671-1.509.961.961 0 0 0-.35-.466l-.073-.044a.998.998 0 0 0-.233-.124 1.547 1.547 0 0 0-.335-.095l-3.995.03c-.408 0-.685.092-.83.277l-.06.087A.472.472 0 0 0 1 8.328c0 .107.03.238.088.394a48.112 48.112 0 0 0 1.902 3.965c.685 1.273 1.28 2.299 1.786 3.076a36.32 36.32 0 0 0 1.545 2.201c.525.69.872 1.133 1.042 1.327.17.195.304.34.401.437l.365.35c.233.233.576.513 1.028.838.452.326.952.647 1.501.963.55.316 1.188.573 1.917.772.73.2 1.439.28 2.129.241h1.676c.34-.03.598-.136.773-.32l.058-.074a.966.966 0 0 0 .11-.27c.033-.12.05-.255.05-.4-.01-.418.022-.795.095-1.13.073-.335.155-.588.248-.758a1.863 1.863 0 0 1 .562-.641.951.951 0 0 1 .116-.051c.233-.078.508-.003.824.226.316.228.612.51.89.846.276.335.609.711.998 1.13.389.417.729.728 1.02.932l.292.175c.194.117.447.224.758.321.31.097.582.122.816.073l3.732-.058c.37 0 .656-.061.86-.183.204-.121.326-.255.365-.4.039-.146.04-.312.007-.496a1.83 1.83 0 0 0-.102-.387z" id="a"/></defs><g fill="none" fill-rule="evenodd"><mask id="b" fill="#fff"><use xlink:href="#a"/></mask><use fill="#FFF" fill-rule="nonzero" xlink:href="#a"/><g mask="url(#b)" fill="#FFF"><path d="M0 0h30v30H0z"/></g></g></svg>